<svg width="100%" height="100%" viewBox="0 0 16 16" shape-rendering="crispEdges" xmlns="http://www.w3.org/2000/svg">
  <rect x="5" y="2" width="6" height="1" fill="#EDF1F3"/>
  <rect x="4" y="3" width="1" height="1" fill="#EDF1F3"/>
  <rect x="5" y="3" width="6" height="1" fill="#FFFFFF"/>
  <rect x="11" y="3" width="1" height="1" fill="#EDF1F3"/>
  <rect x="3" y="4" width="1" height="1" fill="#EDF1F3"/>
  <rect x="4" y="4" width="8" height="1" fill="#FFFFFF"/>
  <rect x="12" y="4" width="1" height="1" fill="#EDF1F3"/>
  <rect x="1" y="5" width="1" height="1" fill="#FFFFFF"/>
  <rect x="3" y="5" width="1" height="1" fill="#EDF1F3"/>
  <rect x="4" y="5" width="8" height="1" fill="#FFFFFF"/>
  <rect x="12" y="5" width="1" height="1" fill="#EDF1F3"/>
  <rect x="14" y="5" width="1" height="1" fill="#FFFFFF"/>
  <rect x="0" y="6" width="2" height="1" fill="#FFFFFF"/>
  <rect x="3" y="6" width="1" height="1" fill="#EDF1F3"/>
  <rect x="6" y="6" width="4" height="1" fill="#FFFFFF"/>
  <rect x="12" y="6" width="1" height="1" fill="#EDF1F3"/>
  <rect x="14" y="6" width="2" height="1" fill="#FFFFFF"/>
  <rect x="0" y="7" width="1" height="1" fill="#FFFFFF"/>
  <rect x="2" y="7" width="1" height="1" fill="#EDF1F3"/>
  <rect x="3" y="7" width="1" height="1" fill="#FFFFFF"/>
  <rect x="4" y="7" width="1" height="1" fill="#14CE96"/>
  <rect x="6" y="7" width="4" height="1" fill="#FFFFFF"/>
  <rect x="11" y="7" width="1" height="1" fill="#14CE96"/>
  <rect x="12" y="7" width="1" height="1" fill="#FFFFFF"/>
  <rect x="13" y="7" width="1" height="1" fill="#EDF1F3"/>
  <rect x="15" y="7" width="1" height="1" fill="#FFFFFF"/>
  <rect x="2" y="8" width="1" height="1" fill="#EDF1F3"/>
  <rect x="3" y="8" width="4" height="1" fill="#FFFFFF"/>
  <rect x="9" y="8" width="4" height="1" fill="#FFFFFF"/>
  <rect x="13" y="8" width="1" height="1" fill="#EDF1F3"/>
  <rect x="3" y="9" width="1" height="1" fill="#EDF1F3"/>
  <rect x="4" y="9" width="3" height="1" fill="#FFFFFF"/>
  <rect x="9" y="9" width="3" height="1" fill="#FFFFFF"/>
  <rect x="12" y="9" width="1" height="1" fill="#EDF1F3"/>
  <rect x="3" y="10" width="1" height="1" fill="#EDF1F3"/>
  <rect x="4" y="10" width="8" height="1" fill="#FFFFFF"/>
  <rect x="12" y="10" width="1" height="1" fill="#EDF1F3"/>
  <rect x="3" y="11" width="1" height="1" fill="#EDF1F3"/>
  <rect x="5" y="11" width="1" height="1" fill="#DDE3E6"/>
  <rect x="7" y="11" width="1" height="1" fill="#DDE3E6"/>
  <rect x="9" y="11" width="1" height="1" fill="#DDE3E6"/>
  <rect x="11" y="11" width="1" height="1" fill="#DDE3E6"/>
  <rect x="12" y="11" width="1" height="1" fill="#EDF1F3"/>
  <rect x="4" y="12" width="1" height="1" fill="#EDF1F3"/>
  <rect x="5" y="12" width="1" height="1" fill="#DDE3E6"/>
  <rect x="6" y="12" width="4" height="1" fill="#FFFFFF"/>
  <rect x="10" y="12" width="1" height="1" fill="#DDE3E6"/>
  <rect x="11" y="12" width="1" height="1" fill="#EDF1F3"/>
  <rect x="5" y="13" width="2" height="1" fill="#EDF1F3"/>
  <rect x="7" y="13" width="2" height="1" fill="#DDE3E6"/>
  <rect x="9" y="13" width="2" height="1" fill="#EDF1F3"/>
</svg>
