<svg width="100%" height="100%" viewBox="0 0 48 48" shape-rendering="crispEdges" xmlns="http://www.w3.org/2000/svg">
  <rect x="1" y="1" width="46" height="46" rx="8" fill="#0E1F1A"/>
  <rect x="15" y="3" width="3" height="3" fill="#8A4A42"/>
  <rect x="18" y="3" width="3" height="3" fill="#F0A79B"/>
  <rect x="21" y="3" width="6" height="3" fill="#D96C63"/>
  <rect x="27" y="3" width="3" height="3" fill="#8A4A42"/>
  <rect x="9" y="6" width="3" height="3" fill="#8A4A42"/>
  <rect x="12" y="6" width="3" height="3" fill="#D96C63"/>
  <rect x="15" y="6" width="3" height="3" fill="#F0A79B"/>
  <rect x="18" y="6" width="3" height="3" fill="#D96C63"/>
  <rect x="21" y="6" width="3" height="3" fill="#F0A79B"/>
  <rect x="24" y="6" width="3" height="3" fill="#D96C63"/>
  <rect x="27" y="6" width="3" height="3" fill="#F0A79B"/>
  <rect x="30" y="6" width="3" height="3" fill="#D96C63"/>
  <rect x="33" y="6" width="3" height="3" fill="#8A4A42"/>
  <rect x="6" y="9" width="3" height="3" fill="#8A4A42"/>
  <rect x="9" y="9" width="3" height="3" fill="#D96C63"/>
  <rect x="12" y="9" width="3" height="3" fill="#F0A79B"/>
  <rect x="15" y="9" width="3" height="3" fill="#D96C63"/>
  <rect x="18" y="9" width="3" height="3" fill="#8A4A42"/>
  <rect x="21" y="9" width="3" height="3" fill="#D96C63"/>
  <rect x="24" y="9" width="3" height="3" fill="#F0A79B"/>
  <rect x="27" y="9" width="3" height="3" fill="#D96C63"/>
  <rect x="30" y="9" width="3" height="3" fill="#F0A79B"/>
  <rect x="33" y="9" width="6" height="3" fill="#D96C63"/>
  <rect x="39" y="9" width="3" height="3" fill="#8A4A42"/>
  <rect x="6" y="12" width="3" height="3" fill="#8A4A42"/>
  <rect x="9" y="12" width="3" height="3" fill="#F0A79B"/>
  <rect x="12" y="12" width="3" height="3" fill="#D96C63"/>
  <rect x="15" y="12" width="3" height="3" fill="#F0A79B"/>
  <rect x="18" y="12" width="3" height="3" fill="#E9E2CE"/>
  <rect x="21" y="12" width="3" height="3" fill="#C2B8A0"/>
  <rect x="24" y="12" width="6" height="3" fill="#E9E2CE"/>
  <rect x="30" y="12" width="3" height="3" fill="#F0A79B"/>
  <rect x="33" y="12" width="3" height="3" fill="#D96C63"/>
  <rect x="36" y="12" width="3" height="3" fill="#F0A79B"/>
  <rect x="39" y="12" width="3" height="3" fill="#8A4A42"/>
  <rect x="3" y="15" width="3" height="3" fill="#3A332C"/>
  <rect x="6" y="15" width="6" height="3" fill="#E9E2CE"/>
  <rect x="12" y="15" width="9" height="3" fill="#3A332C"/>
  <rect x="21" y="15" width="6" height="3" fill="#E9E2CE"/>
  <rect x="27" y="15" width="9" height="3" fill="#3A332C"/>
  <rect x="36" y="15" width="6" height="3" fill="#E9E2CE"/>
  <rect x="42" y="15" width="3" height="3" fill="#3A332C"/>
  <rect x="3" y="18" width="3" height="3" fill="#3A332C"/>
  <rect x="6" y="18" width="6" height="3" fill="#E9E2CE"/>
  <rect x="12" y="18" width="3" height="3" fill="#3A332C"/>
  <rect x="15" y="18" width="3" height="3" fill="#17130F"/>
  <rect x="18" y="18" width="3" height="3" fill="#3A332C"/>
  <rect x="21" y="18" width="6" height="3" fill="#E9E2CE"/>
  <rect x="27" y="18" width="3" height="3" fill="#3A332C"/>
  <rect x="30" y="18" width="3" height="3" fill="#17130F"/>
  <rect x="33" y="18" width="3" height="3" fill="#3A332C"/>
  <rect x="36" y="18" width="6" height="3" fill="#E9E2CE"/>
  <rect x="42" y="18" width="3" height="3" fill="#3A332C"/>
  <rect x="3" y="21" width="3" height="3" fill="#3A332C"/>
  <rect x="6" y="21" width="6" height="3" fill="#E9E2CE"/>
  <rect x="12" y="21" width="9" height="3" fill="#3A332C"/>
  <rect x="21" y="21" width="6" height="3" fill="#E9E2CE"/>
  <rect x="27" y="21" width="9" height="3" fill="#3A332C"/>
  <rect x="36" y="21" width="6" height="3" fill="#E9E2CE"/>
  <rect x="42" y="21" width="3" height="3" fill="#3A332C"/>
  <rect x="3" y="24" width="3" height="3" fill="#3A332C"/>
  <rect x="6" y="24" width="3" height="3" fill="#C2B8A0"/>
  <rect x="9" y="24" width="12" height="3" fill="#E9E2CE"/>
  <rect x="21" y="24" width="6" height="3" fill="#C2B8A0"/>
  <rect x="27" y="24" width="12" height="3" fill="#E9E2CE"/>
  <rect x="39" y="24" width="3" height="3" fill="#C2B8A0"/>
  <rect x="42" y="24" width="3" height="3" fill="#3A332C"/>
  <rect x="3" y="27" width="3" height="3" fill="#3A332C"/>
  <rect x="6" y="27" width="3" height="3" fill="#C2B8A0"/>
  <rect x="9" y="27" width="3" height="3" fill="#3A332C"/>
  <rect x="12" y="27" width="21" height="3" fill="#4E7D52"/>
  <rect x="33" y="27" width="3" height="3" fill="#3A332C"/>
  <rect x="36" y="27" width="3" height="3" fill="#C2B8A0"/>
  <rect x="39" y="27" width="3" height="3" fill="#E9E2CE"/>
  <rect x="42" y="27" width="3" height="3" fill="#3A332C"/>
  <rect x="3" y="30" width="3" height="3" fill="#3A332C"/>
  <rect x="6" y="30" width="3" height="3" fill="#C2B8A0"/>
  <rect x="9" y="30" width="3" height="3" fill="#3A332C"/>
  <rect x="12" y="30" width="6" height="3" fill="#F5F1E4"/>
  <rect x="18" y="30" width="3" height="3" fill="#22392B"/>
  <rect x="21" y="30" width="6" height="3" fill="#F5F1E4"/>
  <rect x="27" y="30" width="3" height="3" fill="#22392B"/>
  <rect x="30" y="30" width="3" height="3" fill="#F5F1E4"/>
  <rect x="33" y="30" width="3" height="3" fill="#3A332C"/>
  <rect x="36" y="30" width="3" height="3" fill="#C2B8A0"/>
  <rect x="39" y="30" width="3" height="3" fill="#E9E2CE"/>
  <rect x="42" y="30" width="3" height="3" fill="#3A332C"/>
  <rect x="3" y="33" width="3" height="3" fill="#3A332C"/>
  <rect x="6" y="33" width="3" height="3" fill="#C2B8A0"/>
  <rect x="9" y="33" width="3" height="3" fill="#3A332C"/>
  <rect x="12" y="33" width="21" height="3" fill="#22392B"/>
  <rect x="33" y="33" width="3" height="3" fill="#3A332C"/>
  <rect x="36" y="33" width="3" height="3" fill="#C2B8A0"/>
  <rect x="39" y="33" width="3" height="3" fill="#E9E2CE"/>
  <rect x="42" y="33" width="3" height="3" fill="#3A332C"/>
  <rect x="6" y="36" width="3" height="3" fill="#3A332C"/>
  <rect x="9" y="36" width="3" height="3" fill="#C2B8A0"/>
  <rect x="12" y="36" width="3" height="3" fill="#3A332C"/>
  <rect x="15" y="36" width="15" height="3" fill="#4E7D52"/>
  <rect x="30" y="36" width="3" height="3" fill="#3A332C"/>
  <rect x="33" y="36" width="3" height="3" fill="#C2B8A0"/>
  <rect x="36" y="36" width="3" height="3" fill="#E9E2CE"/>
  <rect x="39" y="36" width="3" height="3" fill="#3A332C"/>
  <rect x="6" y="39" width="3" height="3" fill="#3A332C"/>
  <rect x="9" y="39" width="6" height="3" fill="#C2B8A0"/>
  <rect x="15" y="39" width="18" height="3" fill="#E9E2CE"/>
  <rect x="33" y="39" width="6" height="3" fill="#C2B8A0"/>
  <rect x="39" y="39" width="3" height="3" fill="#3A332C"/>
  <rect x="9" y="42" width="6" height="3" fill="#3A332C"/>
  <rect x="15" y="42" width="18" height="3" fill="#C2B8A0"/>
  <rect x="33" y="42" width="6" height="3" fill="#3A332C"/>
</svg>
