<svg width="100%" height="100%" xmlns="http://www.w3.org/2000/svg" viewBox="0 0 512 512" role="img" aria-labelledby="title">
<title>Tao Gunka</title><style>.c0{fill:#aeaeae}.c1{fill:#b8b8b8}.c2{fill:#c2c2c2}.c3{fill:#cecece}.c4{fill:#dadada}.c5{fill:#e7e7e7}.c6{fill:#f3f3f3}</style><defs><filter id="sh" x="-20%" y="-20%" width="140%" height="140%"><feDropShadow dx="0" dy="0" stdDeviation="7" flood-color="#000" flood-opacity="0.55"/></filter></defs>

<g filter="url(#sh)" fill-rule="evenodd" clip-rule="evenodd">
<path class="c0" d="M 176.52 24.89 L 163.07 38.34 L 163.07 73.80 L 166.74 78.69 L 166.74 82.36 L 161.84 89.70 L 155.73 92.15 L 155.73 95.81 L 153.28 98.26 L 148.39 99.48 L 147.17 111.71 L 144.73 114.16 L 132.50 115.38 L 131.27 120.27 L 128.83 122.72 L 123.94 123.94 L 122.72 126.38 L 122.72 153.28 L 120.27 155.73 L 117.82 155.73 L 112.93 163.07 L 108.04 164.29 L 106.82 166.74 L 106.82 177.74 L 104.37 180.19 L 100.70 180.19 L 98.26 182.63 L 98.26 186.30 L 90.92 189.97 L 89.70 202.20 L 87.25 204.64 L 84.81 204.64 L 81.14 209.53 L 81.14 243.77 L 73.80 247.44 L 73.80 258.45 L 67.69 262.11 L 65.24 265.78 L 65.24 302.47 L 66.47 304.91 L 71.36 306.13 L 73.80 308.58 L 73.80 359.94 L 75.03 362.38 L 81.14 364.83 L 81.14 381.95 L 83.59 386.84 L 89.70 389.28 L 89.70 400.29 L 90.92 402.74 L 95.81 403.96 L 98.26 406.40 L 98.26 417.41 L 100.70 419.85 L 103.15 419.85 L 109.26 428.41 L 112.93 428.41 L 116.60 435.75 L 128.83 436.97 L 131.27 439.42 L 131.27 443.09 L 136.17 444.31 L 138.61 446.76 L 139.83 451.65 L 144.73 452.87 L 147.17 455.32 L 148.39 460.21 L 153.28 461.43 L 155.73 463.88 L 156.95 468.77 L 170.40 469.99 L 172.85 476.10 L 175.30 477.33 L 193.64 477.33 L 196.08 479.77 L 196.08 482.22 L 200.97 485.89 L 252.33 485.89 L 257.22 483.44 L 259.67 477.33 L 279.23 477.33 L 284.12 469.99 L 296.35 468.77 L 300.02 461.43 L 311.03 461.43 L 313.47 460.21 L 314.69 455.32 L 317.14 452.87 L 322.03 451.65 L 324.48 445.53 L 336.70 444.31 L 339.15 441.87 L 340.37 436.97 L 358.72 436.97 L 362.38 435.75 L 363.61 430.86 L 366.05 428.41 L 377.06 428.41 L 381.95 421.08 L 394.18 419.85 L 396.62 413.74 L 402.74 411.30 L 403.96 406.40 L 410.07 403.96 L 412.52 397.84 L 419.85 394.18 L 421.08 380.73 L 425.97 379.50 L 428.41 377.06 L 429.64 364.83 L 435.75 362.38 L 436.97 359.94 L 436.97 301.24 L 443.09 297.58 L 445.53 293.91 L 445.53 241.33 L 443.09 237.66 L 436.97 235.21 L 436.97 231.54 L 434.53 229.10 L 432.08 229.10 L 429.64 226.65 L 429.64 186.30 L 436.97 181.41 L 436.97 170.40 L 439.42 167.96 L 444.31 166.74 L 445.53 163.07 L 445.53 127.61 L 432.08 114.16 L 412.52 114.16 L 407.63 119.05 L 405.18 119.05 L 402.74 115.38 L 396.62 112.93 L 395.40 100.70 L 388.06 95.81 L 388.06 93.37 L 385.62 90.92 L 383.17 90.92 L 379.50 87.25 L 379.50 84.81 L 377.06 82.36 L 374.61 82.36 L 369.72 75.03 L 364.83 73.80 L 363.61 68.91 L 355.05 62.80 L 355.05 51.79 L 348.93 49.35 L 345.26 42.01 L 331.81 40.79 L 328.15 42.01 L 325.70 45.68 L 323.25 45.68 L 320.81 42.01 L 308.58 40.79 L 303.69 33.45 L 284.12 33.45 L 281.68 31.01 L 281.68 27.34 L 278.01 24.89 L 258.45 24.89 L 253.55 27.34 L 251.11 33.45 L 222.98 33.45 L 220.54 37.12 L 216.87 37.12 L 213.20 33.45 L 203.42 33.45 L 200.97 31.01 L 200.97 28.56 L 196.08 24.89 Z"/>
<path class="c1" d="M 411.30 373.39 L 407.63 369.72 L 402.74 369.72 L 397.84 375.83 L 385.62 379.50 L 380.73 385.62 L 377.06 386.84 L 369.72 396.62 L 362.38 402.74 L 359.94 407.63 L 359.94 413.74 L 353.82 418.63 L 353.82 424.75 L 358.72 427.19 L 361.16 425.97 L 362.38 421.08 L 364.83 418.63 L 375.83 418.63 L 381.95 411.30 L 392.95 410.07 L 394.18 408.85 L 394.18 399.07 L 401.51 391.73 L 401.51 380.73 L 410.07 375.83 Z M 436.97 322.03 L 429.64 322.03 L 427.19 324.48 L 427.19 357.49 L 430.86 363.61 L 436.97 357.49 Z M 429.64 287.79 L 427.19 290.24 L 427.19 292.68 L 432.08 293.91 L 433.31 291.46 Z M 175.30 26.11 L 172.85 28.56 L 172.85 31.01 L 164.29 37.12 L 164.29 73.80 L 166.74 77.47 L 170.40 78.69 L 181.41 78.69 L 182.63 79.92 L 182.63 90.92 L 171.63 98.26 L 156.95 98.26 L 155.73 99.48 L 155.73 111.71 L 153.28 121.49 L 142.28 122.72 L 138.61 121.49 L 136.17 115.38 L 134.94 115.38 L 131.27 119.05 L 131.27 121.49 L 123.94 126.38 L 123.94 153.28 L 127.61 155.73 L 128.83 159.40 L 130.05 177.74 L 128.83 178.96 L 125.16 177.74 L 125.16 171.63 L 121.49 166.74 L 114.16 172.85 L 106.82 172.85 L 105.60 178.96 L 108.04 194.86 L 114.16 199.75 L 114.16 203.42 L 109.26 205.87 L 104.37 213.20 L 101.93 213.20 L 98.26 219.32 L 90.92 224.21 L 90.92 233.99 L 87.25 237.66 L 82.36 237.66 L 82.36 243.77 L 81.14 244.99 L 82.36 248.66 L 82.36 256.00 L 81.14 257.22 L 81.14 285.35 L 82.36 286.57 L 81.14 336.70 L 76.25 341.60 L 79.92 342.82 L 82.36 348.93 L 82.36 357.49 L 81.14 358.72 L 82.36 370.94 L 88.48 370.94 L 95.81 373.39 L 95.81 375.83 L 92.15 378.28 L 89.70 385.62 L 90.92 400.29 L 98.26 405.18 L 98.26 414.96 L 100.70 418.63 L 106.82 422.30 L 109.26 427.19 L 121.49 428.41 L 123.94 430.86 L 123.94 435.75 L 137.39 436.97 L 141.06 443.09 L 143.50 443.09 L 148.39 446.76 L 149.62 451.65 L 155.73 454.09 L 156.95 458.98 L 169.18 460.21 L 172.85 463.88 L 174.07 467.54 L 186.30 468.77 L 188.75 471.21 L 189.97 477.33 L 196.08 478.55 L 197.31 477.33 L 208.31 477.33 L 209.53 476.10 L 244.99 476.10 L 249.89 469.99 L 268.23 469.99 L 273.12 467.54 L 275.56 461.43 L 295.13 461.43 L 297.58 457.76 L 297.58 454.09 L 301.24 451.65 L 309.80 450.42 L 317.14 452.87 L 322.03 449.20 L 323.25 445.53 L 319.59 436.97 L 315.92 434.53 L 307.36 434.53 L 296.35 423.52 L 296.35 414.96 L 289.02 406.40 L 289.02 394.18 L 287.79 392.95 L 287.79 380.73 L 289.02 379.50 L 292.68 379.50 L 295.13 381.95 L 295.13 399.07 L 302.47 406.40 L 303.69 416.19 L 308.58 419.85 L 318.36 419.85 L 320.81 418.63 L 324.48 412.52 L 331.81 412.52 L 336.70 410.07 L 339.15 405.18 L 359.94 385.62 L 363.61 377.06 L 375.83 364.83 L 377.06 355.05 L 401.51 333.04 L 402.74 325.70 L 396.62 317.14 L 396.62 300.02 L 402.74 297.58 L 405.18 290.24 L 411.30 284.12 L 411.30 258.45 L 417.41 254.78 L 419.85 249.89 L 425.97 246.22 L 429.64 240.10 L 432.08 240.10 L 434.53 242.55 L 434.53 252.33 L 438.20 254.78 L 444.31 254.78 L 444.31 241.33 L 443.09 238.88 L 439.42 237.66 L 435.75 233.99 L 435.75 231.54 L 428.41 226.65 L 428.41 208.31 L 427.19 207.09 L 421.08 208.31 L 416.19 214.42 L 411.30 216.87 L 407.63 222.98 L 396.62 224.21 L 386.84 233.99 L 386.84 241.33 L 385.62 242.55 L 388.06 246.22 L 392.95 248.66 L 392.95 251.11 L 390.51 253.55 L 380.73 253.55 L 377.06 251.11 L 377.06 227.88 L 374.61 224.21 L 364.83 224.21 L 362.38 226.65 L 362.38 235.21 L 353.82 243.77 L 353.82 260.89 L 351.38 263.34 L 347.71 263.34 L 330.59 244.99 L 330.59 242.55 L 341.60 238.88 L 353.82 225.43 L 355.05 208.31 L 350.16 202.20 L 350.16 197.31 L 353.82 194.86 L 359.94 194.86 L 362.38 198.53 L 362.38 203.42 L 364.83 205.87 L 368.50 205.87 L 367.27 194.86 L 370.94 192.41 L 373.39 192.41 L 379.50 199.75 L 383.17 199.75 L 384.39 205.87 L 383.17 207.09 L 370.94 207.09 L 372.17 213.20 L 399.07 214.42 L 402.74 210.76 L 402.74 202.20 L 411.30 193.64 L 411.30 178.96 L 419.85 174.07 L 421.08 166.74 L 424.75 165.51 L 428.41 167.96 L 439.42 167.96 L 444.31 164.29 L 444.31 126.38 L 438.20 122.72 L 433.31 115.38 L 412.52 115.38 L 410.07 116.60 L 407.63 121.49 L 405.18 121.49 L 397.84 114.16 L 391.73 125.16 L 383.17 126.38 L 380.73 123.94 L 380.73 120.27 L 384.39 119.05 L 388.06 114.16 L 388.06 100.70 L 385.62 98.26 L 381.95 98.26 L 379.50 95.81 L 378.28 90.92 L 362.38 90.92 L 358.72 95.81 L 358.72 100.70 L 357.49 101.93 L 353.82 100.70 L 353.82 88.48 L 357.49 84.81 L 361.16 83.59 L 363.61 72.58 L 362.38 68.91 L 355.05 64.02 L 353.82 51.79 L 350.16 50.57 L 342.82 42.01 L 330.59 42.01 L 325.70 48.12 L 323.25 48.12 L 318.36 42.01 L 313.47 42.01 L 313.47 46.90 L 311.03 49.35 L 308.58 49.35 L 306.13 46.90 L 304.91 42.01 L 290.24 40.79 L 289.02 39.56 L 289.02 33.45 L 282.90 33.45 L 281.68 29.78 L 278.01 26.11 L 257.22 26.11 L 254.78 27.34 L 252.33 32.23 L 253.55 39.56 L 246.22 43.23 L 244.99 45.68 L 244.99 57.91 L 248.66 62.80 L 257.22 62.80 L 260.89 66.47 L 260.89 77.47 L 256.00 78.69 L 252.33 75.03 L 251.11 71.36 L 246.22 68.91 L 240.10 68.91 L 240.10 73.80 L 249.89 76.25 L 251.11 79.92 L 242.55 87.25 L 237.66 87.25 L 235.21 83.59 L 235.21 79.92 L 231.54 75.03 L 227.88 73.80 L 219.32 75.03 L 218.09 73.80 L 218.09 71.36 L 224.21 67.69 L 225.43 55.46 L 226.65 54.24 L 229.10 54.24 L 231.54 56.68 L 231.54 64.02 L 233.99 66.47 L 237.66 66.47 L 237.66 59.13 L 240.10 53.02 L 240.10 45.68 L 237.66 42.01 L 233.99 40.79 L 218.09 40.79 L 210.76 33.45 L 202.20 33.45 L 199.75 31.01 L 199.75 28.56 L 196.08 26.11 Z M 159.40 411.30 L 160.62 405.18 L 199.75 405.18 L 200.97 406.40 L 200.97 408.85 L 198.53 410.07 L 196.08 414.96 L 161.84 414.96 Z M 143.50 399.07 L 147.17 397.84 L 153.28 403.96 L 153.28 406.40 L 147.17 407.63 L 143.50 403.96 Z M 256.00 364.83 L 260.89 363.61 L 262.11 367.27 L 257.22 368.50 Z M 221.76 364.83 L 222.98 366.05 L 222.98 373.39 L 220.54 377.06 L 214.42 380.73 L 213.20 386.84 L 209.53 389.28 L 200.97 388.06 L 199.75 386.84 L 199.75 380.73 L 207.09 374.61 L 205.87 364.83 L 209.53 361.16 L 211.98 361.16 L 213.20 363.61 Z M 109.26 345.26 L 112.93 344.04 L 114.16 348.93 L 110.49 350.16 Z M 267.01 331.81 L 270.67 333.04 L 270.67 342.82 L 279.23 351.38 L 279.23 359.94 L 286.57 364.83 L 286.57 375.83 L 285.35 377.06 L 282.90 377.06 L 265.78 358.72 L 265.78 333.04 Z M 149.62 317.14 L 153.28 314.69 L 165.51 314.69 L 167.96 312.25 L 170.40 312.25 L 171.63 313.47 L 171.63 328.15 L 172.85 330.59 L 177.74 331.81 L 193.64 330.59 L 196.08 336.70 L 202.20 340.37 L 210.76 340.37 L 216.87 336.70 L 220.54 336.70 L 226.65 340.37 L 238.88 340.37 L 241.33 337.93 L 243.77 329.37 L 249.89 330.59 L 251.11 335.48 L 243.77 344.04 L 240.10 345.26 L 237.66 357.49 L 235.21 357.49 L 232.77 351.38 L 230.32 350.16 L 216.87 350.16 L 211.98 353.82 L 209.53 353.82 L 204.64 350.16 L 192.41 350.16 L 186.30 352.60 L 182.63 342.82 L 170.40 341.60 L 167.96 339.15 L 167.96 329.37 L 165.51 326.92 L 160.62 325.70 L 152.06 329.37 Z M 244.99 307.36 L 251.11 306.13 L 252.33 309.80 L 246.22 311.03 Z M 137.39 282.90 L 139.83 290.24 L 139.83 302.47 L 145.95 307.36 L 145.95 309.80 L 137.39 320.81 L 127.61 319.59 L 121.49 326.92 L 115.38 330.59 L 114.16 339.15 L 110.49 340.37 L 103.15 333.04 L 103.15 315.92 L 109.26 312.25 L 110.49 309.80 L 110.49 300.02 L 112.93 297.58 L 115.38 297.58 L 117.82 295.13 L 117.82 292.68 L 128.83 282.90 Z M 145.95 276.79 L 145.95 274.34 L 150.84 270.67 L 153.28 263.34 L 165.51 267.01 L 165.51 269.45 L 154.51 278.01 L 147.17 278.01 Z M 176.52 260.89 L 180.19 262.11 L 180.19 268.23 L 178.96 269.45 L 172.85 268.23 L 172.85 265.78 Z M 242.55 249.89 L 244.99 254.78 L 244.99 258.45 L 242.55 260.89 L 237.66 262.11 L 236.44 267.01 L 233.99 269.45 L 224.21 269.45 L 221.76 271.90 L 220.54 276.79 L 222.98 284.12 L 221.76 285.35 L 211.98 285.35 L 209.53 282.90 L 208.31 275.56 L 215.65 273.12 L 216.87 270.67 L 215.65 252.33 L 218.09 249.89 L 224.21 249.89 L 227.88 253.55 L 227.88 258.45 L 233.99 258.45 L 233.99 253.55 L 236.44 251.11 Z M 259.67 238.88 L 263.34 240.10 L 263.34 252.33 L 268.23 256.00 L 268.23 259.67 L 263.34 262.11 L 258.45 260.89 L 258.45 240.10 Z M 176.52 237.66 L 180.19 238.88 L 180.19 257.22 L 178.96 258.45 L 176.52 258.45 L 175.30 254.78 L 167.96 251.11 L 169.18 244.99 Z M 152.06 229.10 L 154.51 222.98 L 161.84 222.98 L 163.07 224.21 L 161.84 227.88 L 155.73 230.32 Z M 166.74 219.32 L 166.74 216.87 L 169.18 214.42 L 177.74 214.42 L 178.96 215.65 L 178.96 218.09 L 176.52 220.54 L 167.96 220.54 Z M 242.55 211.98 L 246.22 213.20 L 247.44 219.32 L 252.33 224.21 L 251.11 229.10 L 243.77 229.10 L 241.33 226.65 L 241.33 213.20 Z M 127.61 199.75 L 128.83 198.53 L 134.94 198.53 L 136.17 202.20 L 134.94 203.42 L 128.83 203.42 Z M 231.54 193.64 L 235.21 193.64 L 238.88 199.75 L 244.99 202.20 L 244.99 209.53 L 243.77 210.76 L 241.33 210.76 L 240.10 207.09 L 232.77 202.20 L 230.32 197.31 Z M 199.75 193.64 L 196.08 202.20 L 188.75 205.87 L 186.30 211.98 L 183.85 211.98 L 178.96 207.09 L 169.18 207.09 L 167.96 205.87 L 169.18 200.97 L 180.19 200.97 L 188.75 197.31 L 194.86 192.41 Z M 389.28 165.51 L 391.73 165.51 L 394.18 169.18 L 394.18 194.86 L 391.73 197.31 L 388.06 196.08 L 388.06 166.74 Z M 221.76 166.74 L 224.21 164.29 L 224.21 161.84 L 227.88 158.18 L 230.32 158.18 L 232.77 153.28 L 235.21 153.28 L 237.66 164.29 L 240.10 166.74 L 258.45 167.96 L 260.89 170.40 L 260.89 174.07 L 258.45 177.74 L 252.33 177.74 L 247.44 172.85 L 243.77 171.63 L 222.98 170.40 Z M 280.46 152.06 L 281.68 150.84 L 287.79 150.84 L 289.02 154.51 L 287.79 155.73 L 281.68 155.73 Z M 335.48 160.62 L 336.70 159.40 L 342.82 159.40 L 348.93 150.84 L 351.38 150.84 L 356.27 147.17 L 361.16 147.17 L 362.38 148.39 L 374.61 149.62 L 384.39 159.40 L 384.39 163.07 L 383.17 164.29 L 375.83 163.07 L 369.72 155.73 L 363.61 154.51 L 353.82 155.73 L 348.93 163.07 L 342.82 165.51 L 336.70 164.29 Z M 301.24 145.95 L 307.36 148.39 L 307.36 152.06 L 304.91 154.51 L 298.80 154.51 L 297.58 153.28 L 297.58 150.84 Z M 241.33 138.61 L 244.99 137.39 L 251.11 143.50 L 251.11 145.95 L 249.89 147.17 L 243.77 147.17 L 241.33 144.73 Z M 267.01 136.17 L 270.67 137.39 L 270.67 142.28 L 274.34 142.28 L 278.01 144.73 L 279.23 149.62 L 278.01 153.28 L 273.12 153.28 L 268.23 149.62 L 268.23 144.73 L 265.78 143.50 L 265.78 137.39 Z M 193.64 136.17 L 211.98 132.50 L 213.20 133.72 L 213.20 139.83 L 220.54 145.95 L 220.54 149.62 L 216.87 150.84 L 213.20 147.17 L 202.20 147.17 L 193.64 138.61 Z M 152.06 133.72 L 154.51 131.27 L 170.40 132.50 L 171.63 137.39 L 170.40 138.61 L 153.28 138.61 Z M 342.82 119.05 L 350.16 112.93 L 356.27 112.93 L 359.94 117.82 L 364.83 119.05 L 367.27 121.49 L 367.27 127.61 L 375.83 127.61 L 377.06 131.27 L 374.61 133.72 L 368.50 133.72 L 366.05 130.05 L 357.49 128.83 L 355.05 123.94 L 352.60 122.72 L 344.04 122.72 Z M 178.96 112.93 L 185.08 112.93 L 187.52 117.82 L 187.52 130.05 L 186.30 131.27 L 175.30 131.27 L 172.85 128.83 L 172.85 122.72 Z M 199.75 103.15 L 203.42 101.93 L 204.64 105.60 L 200.97 106.82 Z M 204.64 104.37 L 210.76 103.15 L 214.42 109.26 L 222.98 110.49 L 226.65 106.82 L 227.88 100.70 L 231.54 97.04 L 233.99 97.04 L 237.66 104.37 L 237.66 115.38 L 238.88 117.82 L 248.66 120.27 L 248.66 122.72 L 244.99 126.38 L 244.99 133.72 L 241.33 134.94 L 238.88 131.27 L 235.21 131.27 L 232.77 128.83 L 231.54 122.72 L 226.65 120.27 L 211.98 121.49 Z M 276.79 108.04 L 279.23 105.60 L 281.68 105.60 L 292.68 99.48 L 298.80 90.92 L 301.24 90.92 L 302.47 92.15 L 302.47 106.82 L 313.47 117.82 L 323.25 120.27 L 325.70 122.72 L 325.70 130.05 L 324.48 131.27 L 318.36 131.27 L 313.47 123.94 L 308.58 122.72 L 306.13 120.27 L 306.13 117.82 L 301.24 114.16 L 279.23 115.38 L 276.79 112.93 Z M 192.41 84.81 L 196.08 86.03 L 196.08 92.15 L 193.64 94.59 L 189.97 93.37 L 189.97 87.25 Z M 268.23 78.69 L 278.01 78.69 L 280.46 81.14 L 280.46 100.70 L 278.01 103.15 L 274.34 101.93 L 273.12 87.25 L 271.90 84.81 L 267.01 82.36 Z M 306.13 72.58 L 312.25 71.36 L 314.69 75.03 L 319.59 77.47 L 319.59 81.14 L 318.36 82.36 L 309.80 82.36 L 306.13 77.47 Z M 315.92 53.02 L 320.81 54.24 L 320.81 65.24 L 319.59 66.47 L 314.69 65.24 L 314.69 54.24 Z"/>
<path class="c2" d="M 397.84 380.73 L 390.51 380.73 L 374.61 395.40 L 364.83 406.40 L 364.83 413.74 L 366.05 414.96 L 373.39 414.96 L 381.95 406.40 L 390.51 406.40 L 390.51 397.84 L 397.84 390.51 Z M 120.27 175.30 L 114.16 177.74 L 106.82 177.74 L 110.49 181.41 L 112.93 188.75 L 120.27 188.75 L 121.49 187.52 L 121.49 176.52 Z M 249.89 125.16 L 247.44 128.83 L 247.44 133.72 L 249.89 139.83 L 257.22 142.28 L 262.11 141.06 L 263.34 138.61 L 263.34 127.61 L 260.89 125.16 Z M 273.12 128.83 L 273.12 137.39 L 284.12 148.39 L 287.79 149.62 L 296.35 148.39 L 300.02 141.06 L 309.80 142.28 L 313.47 139.83 L 313.47 127.61 L 311.03 125.16 L 308.58 125.16 L 301.24 116.60 L 285.35 117.82 L 280.46 120.27 Z M 412.52 115.38 L 402.74 125.16 L 402.74 127.61 L 400.29 130.05 L 394.18 131.27 L 391.73 133.72 L 391.73 137.39 L 384.39 141.06 L 383.17 148.39 L 385.62 150.84 L 390.51 152.06 L 392.95 154.51 L 392.95 156.95 L 400.29 161.84 L 401.51 166.74 L 407.63 169.18 L 411.30 172.85 L 416.19 172.85 L 418.63 169.18 L 418.63 161.84 L 421.08 159.40 L 424.75 159.40 L 428.41 164.29 L 432.08 165.51 L 439.42 158.18 L 444.31 158.18 L 444.31 149.62 L 438.20 147.17 L 438.20 123.94 L 430.86 121.49 L 421.08 121.49 L 418.63 119.05 L 418.63 115.38 Z M 133.72 123.94 L 131.27 128.83 L 133.72 136.17 L 133.72 145.95 L 138.61 150.84 L 138.61 153.28 L 132.50 156.95 L 131.27 159.40 L 132.50 189.97 L 144.73 200.97 L 144.73 203.42 L 143.50 204.64 L 119.05 204.64 L 116.60 205.87 L 95.81 226.65 L 95.81 235.21 L 87.25 242.55 L 82.36 242.55 L 87.25 247.44 L 87.25 253.55 L 84.81 258.45 L 84.81 284.12 L 87.25 290.24 L 87.25 309.80 L 84.81 315.92 L 84.81 329.37 L 83.59 330.59 L 83.59 342.82 L 87.25 348.93 L 87.25 359.94 L 82.36 366.05 L 87.25 366.05 L 93.37 369.72 L 97.04 369.72 L 99.48 373.39 L 98.26 378.28 L 98.26 403.96 L 105.60 406.40 L 105.60 416.19 L 108.04 421.08 L 120.27 421.08 L 126.38 428.41 L 148.39 438.20 L 153.28 443.09 L 169.18 443.09 L 171.63 444.31 L 176.52 451.65 L 193.64 451.65 L 197.31 455.32 L 197.31 471.21 L 198.53 472.44 L 204.64 472.44 L 210.76 467.54 L 220.54 467.54 L 224.21 462.65 L 226.65 455.32 L 229.10 455.32 L 235.21 460.21 L 243.77 460.21 L 249.89 465.10 L 267.01 465.10 L 276.79 456.54 L 292.68 456.54 L 300.02 447.98 L 304.91 446.76 L 304.91 438.20 L 290.24 423.52 L 290.24 414.96 L 285.35 406.40 L 285.35 396.62 L 280.46 389.28 L 280.46 381.95 L 268.23 369.72 L 262.11 374.61 L 262.11 381.95 L 236.44 407.63 L 232.77 407.63 L 226.65 416.19 L 220.54 417.41 L 161.84 418.63 L 158.18 416.19 L 155.73 411.30 L 144.73 410.07 L 125.16 390.51 L 123.94 385.62 L 119.05 381.95 L 119.05 378.28 L 122.72 377.06 L 125.16 379.50 L 127.61 379.50 L 141.06 394.18 L 153.28 396.62 L 158.18 402.74 L 161.84 403.96 L 174.07 403.96 L 175.30 402.74 L 221.76 402.74 L 222.98 403.96 L 230.32 403.96 L 232.77 401.51 L 232.77 399.07 L 235.21 396.62 L 240.10 395.40 L 241.33 390.51 L 243.77 388.06 L 248.66 386.84 L 249.89 384.39 L 249.89 378.28 L 247.44 375.83 L 244.99 375.83 L 242.55 373.39 L 242.55 370.94 L 247.44 367.27 L 251.11 361.16 L 260.89 361.16 L 263.34 358.72 L 263.34 335.48 L 262.11 331.81 L 265.78 328.15 L 269.45 328.15 L 274.34 333.04 L 274.34 340.37 L 281.68 348.93 L 281.68 356.27 L 290.24 364.83 L 290.24 373.39 L 296.35 377.06 L 298.80 380.73 L 298.80 397.84 L 304.91 405.18 L 306.13 413.74 L 308.58 416.19 L 315.92 417.41 L 325.70 408.85 L 334.26 408.85 L 336.70 402.74 L 342.82 397.84 L 344.04 394.18 L 346.49 391.73 L 348.93 391.73 L 357.49 383.17 L 359.94 374.61 L 369.72 364.83 L 372.17 353.82 L 385.62 340.37 L 389.28 339.15 L 395.40 333.04 L 392.95 301.24 L 401.51 292.68 L 403.96 284.12 L 403.96 274.34 L 396.62 267.01 L 396.62 258.45 L 390.51 254.78 L 377.06 256.00 L 372.17 262.11 L 368.50 263.34 L 364.83 269.45 L 348.93 270.67 L 323.25 244.99 L 323.25 242.55 L 336.70 237.66 L 350.16 224.21 L 352.60 219.32 L 352.60 209.53 L 347.71 204.64 L 345.26 197.31 L 346.49 177.74 L 351.38 176.52 L 364.83 189.97 L 373.39 189.97 L 381.95 197.31 L 384.39 194.86 L 385.62 189.97 L 384.39 169.18 L 381.95 166.74 L 374.61 166.74 L 370.94 160.62 L 366.05 156.95 L 356.27 156.95 L 342.82 170.40 L 339.15 170.40 L 336.70 166.74 L 333.04 165.51 L 329.37 161.84 L 330.59 156.95 L 341.60 155.73 L 352.60 145.95 L 353.82 127.61 L 347.71 123.94 L 330.59 123.94 L 326.92 131.27 L 319.59 134.94 L 318.36 145.95 L 320.81 149.62 L 329.37 153.28 L 328.15 156.95 L 291.46 155.73 L 285.35 158.18 L 274.34 158.18 L 268.23 166.74 L 264.56 165.51 L 264.56 156.95 L 265.78 155.73 L 264.56 149.62 L 258.45 147.17 L 257.22 148.39 L 242.55 149.62 L 240.10 145.95 L 238.88 134.94 L 236.44 132.50 L 233.99 132.50 L 227.88 125.16 L 225.43 125.16 L 215.65 134.94 L 215.65 138.61 L 220.54 142.28 L 224.21 153.28 L 227.88 154.51 L 232.77 150.84 L 236.44 150.84 L 238.88 153.28 L 240.10 159.40 L 242.55 163.07 L 251.11 163.07 L 254.78 165.51 L 262.11 166.74 L 264.56 169.18 L 263.34 177.74 L 259.67 182.63 L 249.89 180.19 L 244.99 175.30 L 235.21 171.63 L 231.54 172.85 L 214.42 172.85 L 213.20 174.07 L 208.31 174.07 L 204.64 171.63 L 205.87 166.74 L 218.09 165.51 L 220.54 164.29 L 221.76 160.62 L 215.65 155.73 L 215.65 153.28 L 209.53 148.39 L 198.53 148.39 L 196.08 143.50 L 189.97 137.39 L 189.97 134.94 L 192.41 132.50 L 202.20 132.50 L 207.09 128.83 L 207.09 114.16 L 203.42 109.26 L 192.41 108.04 L 188.75 112.93 L 188.75 122.72 L 191.19 131.27 L 186.30 133.72 L 178.96 133.72 L 171.63 141.06 L 152.06 139.83 L 150.84 138.61 L 150.84 126.38 L 147.17 123.94 Z M 240.10 306.13 L 243.77 303.69 L 253.55 304.91 L 264.56 314.69 L 264.56 318.36 L 262.11 320.81 L 257.22 320.81 L 252.33 313.47 L 241.33 312.25 Z M 192.41 298.80 L 197.31 297.58 L 198.53 301.24 L 193.64 302.47 Z M 220.54 298.80 L 226.65 296.35 L 235.21 296.35 L 237.66 298.80 L 237.66 302.47 L 236.44 303.69 L 222.98 303.69 L 220.54 301.24 Z M 186.30 289.02 L 186.30 291.46 L 183.85 293.91 L 177.74 293.91 L 176.52 292.68 L 177.74 289.02 L 182.63 287.79 Z M 149.62 290.24 L 152.06 287.79 L 161.84 289.02 L 163.07 293.91 L 161.84 295.13 L 150.84 293.91 Z M 99.48 314.69 L 105.60 307.36 L 106.82 297.58 L 122.72 282.90 L 127.61 280.46 L 139.83 280.46 L 142.28 282.90 L 142.28 293.91 L 147.17 304.91 L 147.17 309.80 L 149.62 313.47 L 163.07 313.47 L 165.51 312.25 L 167.96 307.36 L 166.74 306.13 L 166.74 300.02 L 167.96 298.80 L 170.40 298.80 L 176.52 306.13 L 185.08 306.13 L 186.30 307.36 L 185.08 311.03 L 175.30 311.03 L 172.85 313.47 L 172.85 326.92 L 177.74 330.59 L 188.75 329.37 L 191.19 326.92 L 192.41 315.92 L 194.86 313.47 L 233.99 312.25 L 237.66 314.69 L 236.44 318.36 L 222.98 319.59 L 220.54 324.48 L 216.87 324.48 L 210.76 318.36 L 199.75 319.59 L 197.31 322.03 L 197.31 335.48 L 199.75 337.93 L 211.98 337.93 L 215.65 334.26 L 216.87 326.92 L 220.54 325.70 L 221.76 326.92 L 221.76 335.48 L 224.21 337.93 L 235.21 339.15 L 240.10 335.48 L 240.10 325.70 L 242.55 322.03 L 246.22 322.03 L 256.00 331.81 L 256.00 334.26 L 252.33 342.82 L 252.33 350.16 L 244.99 359.94 L 233.99 359.94 L 230.32 352.60 L 226.65 351.38 L 219.32 351.38 L 214.42 353.82 L 213.20 358.72 L 216.87 362.38 L 226.65 362.38 L 229.10 364.83 L 229.10 367.27 L 224.21 370.94 L 222.98 375.83 L 215.65 381.95 L 216.87 385.62 L 215.65 391.73 L 202.20 391.73 L 197.31 389.28 L 197.31 383.17 L 205.87 374.61 L 205.87 370.94 L 200.97 367.27 L 169.18 367.27 L 167.96 366.05 L 169.18 362.38 L 180.19 362.38 L 182.63 359.94 L 182.63 353.82 L 183.85 352.60 L 182.63 346.49 L 177.74 342.82 L 169.18 342.82 L 166.74 340.37 L 165.51 329.37 L 159.40 328.15 L 155.73 333.04 L 155.73 341.60 L 158.18 345.26 L 160.62 345.26 L 164.29 348.93 L 164.29 357.49 L 159.40 358.72 L 150.84 348.93 L 149.62 330.59 L 144.73 320.81 L 139.83 325.70 L 134.94 325.70 L 128.83 323.25 L 119.05 331.81 L 116.60 337.93 L 116.60 351.38 L 114.16 358.72 L 110.49 359.94 L 105.60 353.82 L 105.60 341.60 L 100.70 334.26 Z M 188.75 357.49 L 192.41 362.38 L 204.64 362.38 L 207.09 359.94 L 207.09 355.05 L 202.20 351.38 L 194.86 351.38 Z M 185.08 274.34 L 189.97 273.12 L 191.19 276.79 L 188.75 279.23 L 186.30 279.23 Z M 282.90 235.21 L 286.57 232.77 L 292.68 232.77 L 295.13 235.21 L 297.58 243.77 L 296.35 244.99 L 289.02 243.77 L 282.90 237.66 Z M 269.45 225.43 L 270.67 224.21 L 276.79 224.21 L 281.68 236.44 L 280.46 237.66 L 274.34 237.66 L 269.45 230.32 Z M 154.51 202.20 L 155.73 200.97 L 181.41 198.53 L 187.52 192.41 L 193.64 189.97 L 235.21 191.19 L 241.33 198.53 L 247.44 202.20 L 247.44 208.31 L 251.11 216.87 L 256.00 215.65 L 257.22 211.98 L 260.89 210.76 L 262.11 213.20 L 268.23 214.42 L 270.67 218.09 L 270.67 224.21 L 269.45 225.43 L 265.78 225.43 L 260.89 222.98 L 258.45 224.21 L 258.45 227.88 L 264.56 231.54 L 269.45 241.33 L 269.45 254.78 L 270.67 256.00 L 270.67 259.67 L 267.01 263.34 L 263.34 264.56 L 262.11 267.01 L 262.11 275.56 L 251.11 286.57 L 244.99 286.57 L 243.77 287.79 L 210.76 286.57 L 204.64 279.23 L 197.31 276.79 L 198.53 273.12 L 210.76 273.12 L 214.42 270.67 L 215.65 267.01 L 213.20 260.89 L 213.20 251.11 L 216.87 247.44 L 242.55 248.66 L 246.22 252.33 L 244.99 262.11 L 240.10 264.56 L 236.44 270.67 L 225.43 271.90 L 222.98 274.34 L 224.21 279.23 L 226.65 280.46 L 243.77 280.46 L 246.22 279.23 L 247.44 275.56 L 251.11 271.90 L 254.78 270.67 L 257.22 258.45 L 257.22 241.33 L 254.78 233.99 L 252.33 231.54 L 242.55 231.54 L 238.88 227.88 L 240.10 221.76 L 238.88 210.76 L 226.65 198.53 L 207.09 197.31 L 202.20 198.53 L 194.86 205.87 L 191.19 207.09 L 177.74 221.76 L 167.96 222.98 L 155.73 235.21 L 156.95 259.67 L 158.18 262.11 L 165.51 264.56 L 170.40 264.56 L 174.07 262.11 L 174.07 257.22 L 166.74 252.33 L 166.74 243.77 L 174.07 238.88 L 176.52 232.77 L 178.96 232.77 L 182.63 236.44 L 183.85 241.33 L 182.63 262.11 L 187.52 268.23 L 187.52 270.67 L 186.30 271.90 L 169.18 270.67 L 164.29 273.12 L 161.84 276.79 L 154.51 280.46 L 143.50 280.46 L 141.06 278.01 L 141.06 275.56 L 148.39 269.45 L 150.84 259.67 L 150.84 224.21 L 152.06 219.32 L 159.40 211.98 L 159.40 209.53 L 154.51 204.64 Z M 326.92 183.85 L 335.48 193.64 L 335.48 203.42 L 334.26 209.53 L 324.48 219.32 L 322.03 219.32 L 320.81 218.09 L 322.03 209.53 L 324.48 207.09 L 328.15 207.09 L 330.59 203.42 L 329.37 198.53 L 323.25 193.64 L 322.03 185.08 Z M 152.06 185.08 L 153.28 183.85 L 167.96 183.85 L 169.18 187.52 L 167.96 188.75 L 153.28 188.75 Z M 176.52 160.62 L 180.19 161.84 L 180.19 177.74 L 178.96 178.96 L 175.30 177.74 L 175.30 161.84 Z M 188.75 149.62 L 194.86 148.39 L 197.31 150.84 L 197.31 160.62 L 196.08 161.84 L 193.64 161.84 L 186.30 154.51 L 186.30 152.06 Z M 141.06 143.50 L 145.95 142.28 L 147.17 145.95 L 142.28 147.17 Z M 175.30 142.28 L 176.52 141.06 L 181.41 142.28 L 182.63 147.17 L 176.52 148.39 Z M 158.18 100.70 L 156.95 101.93 L 156.95 115.38 L 159.40 119.05 L 171.63 119.05 L 175.30 114.16 L 175.30 103.15 L 169.18 99.48 Z M 366.05 92.15 L 361.16 95.81 L 359.94 112.93 L 372.17 125.16 L 374.61 125.16 L 385.62 114.16 L 385.62 103.15 L 375.83 93.37 Z M 306.13 94.59 L 304.91 104.37 L 317.14 116.60 L 335.48 117.82 L 340.37 116.60 L 345.26 112.93 L 345.26 103.15 L 339.15 100.70 L 335.48 94.59 L 329.37 90.92 L 325.70 83.59 L 314.69 86.03 Z M 268.23 86.03 L 259.67 83.59 L 251.11 84.81 L 246.22 89.70 L 238.88 93.37 L 237.66 98.26 L 241.33 105.60 L 241.33 114.16 L 249.89 117.82 L 257.22 116.60 L 262.11 114.16 L 270.67 105.60 L 271.90 93.37 Z M 330.59 49.35 L 326.92 51.79 L 326.92 67.69 L 329.37 70.13 L 344.04 70.13 L 345.26 71.36 L 345.26 73.80 L 337.93 81.14 L 340.37 88.48 L 344.04 89.70 L 347.71 93.37 L 348.93 97.04 L 350.16 95.81 L 350.16 86.03 L 353.82 82.36 L 357.49 81.14 L 357.49 78.69 L 346.49 67.69 L 345.26 61.58 L 339.15 56.68 L 337.93 53.02 L 335.48 50.57 Z M 254.78 27.34 L 253.55 32.23 L 257.22 35.90 L 257.22 39.56 L 247.44 46.90 L 247.44 56.68 L 249.89 60.35 L 259.67 61.58 L 263.34 65.24 L 263.34 73.80 L 265.78 76.25 L 301.24 77.47 L 304.91 71.36 L 308.58 67.69 L 312.25 66.47 L 312.25 54.24 L 302.47 44.46 L 287.79 42.01 L 285.35 38.34 L 285.35 33.45 L 282.90 33.45 L 281.68 29.78 L 278.01 26.11 L 257.22 26.11 Z M 172.85 32.23 L 170.40 35.90 L 170.40 57.91 L 164.29 59.13 L 164.29 67.69 L 169.18 67.69 L 174.07 75.03 L 181.41 75.03 L 183.85 72.58 L 187.52 72.58 L 188.75 76.25 L 193.64 78.69 L 200.97 76.25 L 214.42 76.25 L 215.65 79.92 L 210.76 84.81 L 203.42 84.81 L 199.75 87.25 L 198.53 97.04 L 200.97 99.48 L 210.76 100.70 L 218.09 106.82 L 220.54 106.82 L 222.98 104.37 L 224.21 95.81 L 230.32 89.70 L 231.54 79.92 L 227.88 76.25 L 216.87 77.47 L 214.42 75.03 L 214.42 72.58 L 221.76 66.47 L 224.21 53.02 L 226.65 50.57 L 235.21 51.79 L 237.66 48.12 L 236.44 45.68 L 222.98 45.68 L 220.54 48.12 L 218.09 48.12 L 216.87 42.01 L 208.31 40.79 L 205.87 37.12 L 205.87 33.45 L 202.20 33.45 L 199.75 31.01 L 199.75 28.56 L 196.08 26.11 L 189.97 26.11 L 189.97 29.78 L 187.52 32.23 Z"/>
<path class="c3" d="M 390.51 385.62 L 369.72 405.18 L 369.72 407.63 L 372.17 410.07 L 391.73 392.95 L 394.18 389.28 Z M 191.19 356.27 L 191.19 358.72 L 193.64 361.16 L 202.20 361.16 L 205.87 358.72 L 205.87 356.27 L 203.42 353.82 L 193.64 353.82 Z M 259.67 334.26 L 256.00 341.60 L 256.00 352.60 L 254.78 353.82 L 256.00 358.72 L 260.89 357.49 L 260.89 336.70 Z M 119.05 337.93 L 117.82 341.60 L 119.05 344.04 L 117.82 359.94 L 123.94 366.05 L 126.38 375.83 L 132.50 380.73 L 141.06 391.73 L 144.73 394.18 L 153.28 395.40 L 159.40 401.51 L 197.31 401.51 L 198.53 400.29 L 222.98 400.29 L 226.65 401.51 L 230.32 399.07 L 231.54 394.18 L 237.66 391.73 L 240.10 385.62 L 246.22 383.17 L 246.22 380.73 L 238.88 375.83 L 240.10 364.83 L 236.44 362.38 L 231.54 362.38 L 230.32 356.27 L 227.88 353.82 L 216.87 353.82 L 215.65 358.72 L 218.09 361.16 L 230.32 361.16 L 231.54 362.38 L 231.54 367.27 L 225.43 372.17 L 224.21 377.06 L 218.09 380.73 L 219.32 385.62 L 230.32 385.62 L 231.54 386.84 L 231.54 391.73 L 229.10 394.18 L 197.31 394.18 L 196.08 392.95 L 175.30 392.95 L 170.40 390.51 L 171.63 386.84 L 194.86 386.84 L 197.31 380.73 L 204.64 374.61 L 203.42 369.72 L 170.40 369.72 L 164.29 364.83 L 164.29 362.38 L 165.51 361.16 L 177.74 361.16 L 180.19 359.94 L 182.63 353.82 L 182.63 348.93 L 181.41 346.49 L 175.30 344.04 L 166.74 344.04 L 165.51 342.82 L 165.51 333.04 L 163.07 329.37 L 160.62 329.37 L 158.18 331.81 L 156.95 340.37 L 165.51 347.71 L 165.51 361.16 L 164.29 362.38 L 159.40 361.16 L 149.62 350.16 L 145.95 328.15 L 143.50 328.15 L 138.61 333.04 L 136.17 333.04 L 131.27 328.15 L 127.61 328.15 Z M 235.21 377.06 L 237.66 377.06 L 240.10 379.50 L 240.10 383.17 L 237.66 385.62 L 231.54 385.62 L 230.32 380.73 Z M 133.72 362.38 L 137.39 361.16 L 139.83 363.61 L 139.83 367.27 L 134.94 368.50 Z M 127.61 336.70 L 130.05 336.70 L 133.72 340.37 L 133.72 359.94 L 132.50 361.16 L 126.38 361.16 L 125.16 359.94 L 125.16 339.15 Z M 200.97 320.81 L 198.53 323.25 L 198.53 334.26 L 200.97 336.70 L 211.98 336.70 L 214.42 334.26 L 214.42 323.25 L 209.53 319.59 Z M 260.89 325.70 L 253.55 323.25 L 251.11 317.14 L 247.44 314.69 L 241.33 314.69 L 240.10 319.59 L 224.21 320.81 L 221.76 324.48 L 222.98 334.26 L 225.43 336.70 L 236.44 336.70 L 240.10 331.81 L 240.10 319.59 L 241.33 318.36 L 248.66 319.59 L 251.11 322.03 L 251.11 324.48 L 256.00 325.70 L 259.67 329.37 Z M 88.48 315.92 L 86.03 341.60 L 92.15 348.93 L 92.15 366.05 L 98.26 368.50 L 101.93 372.17 L 100.70 399.07 L 108.04 405.18 L 108.04 411.30 L 110.49 417.41 L 121.49 418.63 L 128.83 427.19 L 137.39 428.41 L 139.83 432.08 L 147.17 435.75 L 158.18 436.97 L 159.40 435.75 L 175.30 435.75 L 176.52 434.53 L 194.86 434.53 L 198.53 439.42 L 198.53 446.76 L 203.42 451.65 L 211.98 454.09 L 215.65 460.21 L 219.32 460.21 L 225.43 451.65 L 231.54 452.87 L 240.10 451.65 L 242.55 444.31 L 244.99 444.31 L 247.44 446.76 L 247.44 454.09 L 251.11 458.98 L 267.01 458.98 L 274.34 452.87 L 290.24 451.65 L 296.35 445.53 L 297.58 438.20 L 289.02 429.64 L 285.35 422.30 L 285.35 412.52 L 280.46 402.74 L 278.01 400.29 L 273.12 399.07 L 268.23 394.18 L 259.67 394.18 L 246.22 407.63 L 235.21 412.52 L 229.10 419.85 L 222.98 422.30 L 222.98 428.41 L 220.54 432.08 L 209.53 433.31 L 204.64 427.19 L 194.86 421.08 L 159.40 421.08 L 154.51 416.19 L 154.51 413.74 L 142.28 412.52 L 138.61 408.85 L 137.39 405.18 L 133.72 403.96 L 130.05 397.84 L 126.38 396.62 L 115.38 383.17 L 114.16 372.17 L 109.26 368.50 L 108.04 363.61 L 100.70 356.27 L 100.70 340.37 L 97.04 328.15 L 97.04 317.14 L 95.81 314.69 L 89.70 314.69 Z M 148.39 284.12 L 145.95 284.12 L 145.95 289.02 Z M 154.51 282.90 L 156.95 286.57 L 160.62 286.57 L 165.51 290.24 L 165.51 296.35 L 164.29 297.58 L 148.39 296.35 L 147.17 301.24 L 149.62 311.03 L 152.06 312.25 L 163.07 312.25 L 165.51 309.80 L 165.51 302.47 L 164.29 301.24 L 165.51 296.35 L 171.63 296.35 L 174.07 301.24 L 178.96 304.91 L 187.52 304.91 L 188.75 306.13 L 188.75 309.80 L 186.30 312.25 L 176.52 312.25 L 174.07 314.69 L 174.07 325.70 L 177.74 329.37 L 186.30 329.37 L 189.97 325.70 L 191.19 314.69 L 193.64 312.25 L 235.21 311.03 L 236.44 309.80 L 235.21 306.13 L 221.76 306.13 L 215.65 303.69 L 192.41 303.69 L 191.19 298.80 L 193.64 296.35 L 207.09 297.58 L 208.31 296.35 L 221.76 296.35 L 222.98 295.13 L 235.21 293.91 L 240.10 297.58 L 242.55 302.47 L 256.00 303.69 L 268.23 314.69 L 270.67 325.70 L 278.01 333.04 L 278.01 340.37 L 286.57 348.93 L 286.57 353.82 L 292.68 361.16 L 295.13 368.50 L 302.47 373.39 L 302.47 392.95 L 307.36 401.51 L 308.58 410.07 L 312.25 413.74 L 315.92 414.96 L 322.03 407.63 L 333.04 406.40 L 333.04 402.74 L 329.37 399.07 L 330.59 389.28 L 334.26 386.84 L 348.93 385.62 L 353.82 379.50 L 353.82 372.17 L 366.05 359.94 L 369.72 347.71 L 383.17 335.48 L 389.28 334.26 L 391.73 331.81 L 390.51 301.24 L 399.07 291.46 L 400.29 276.79 L 394.18 268.23 L 394.18 262.11 L 391.73 257.22 L 380.73 257.22 L 370.94 265.78 L 364.83 274.34 L 355.05 274.34 L 351.38 278.01 L 348.93 278.01 L 331.81 260.89 L 329.37 256.00 L 319.59 247.44 L 315.92 246.22 L 313.47 247.44 L 289.02 247.44 L 282.90 244.99 L 275.56 244.99 L 273.12 246.22 L 270.67 251.11 L 271.90 260.89 L 264.56 267.01 L 263.34 276.79 L 251.11 289.02 L 211.98 289.02 L 202.20 280.46 L 193.64 280.46 L 189.97 284.12 L 187.52 293.91 L 175.30 295.13 L 174.07 289.02 L 182.63 284.12 L 182.63 275.56 L 180.19 273.12 L 167.96 273.12 L 163.07 279.23 Z M 351.38 322.03 L 355.05 328.15 L 366.05 329.37 L 369.72 333.04 L 369.72 341.60 L 362.38 346.49 L 361.16 358.72 L 358.72 361.16 L 347.71 361.16 L 344.04 367.27 L 340.37 368.50 L 336.70 364.83 L 336.70 347.71 L 330.59 342.82 L 330.59 340.37 L 341.60 336.70 L 345.26 333.04 L 346.49 324.48 L 348.93 322.03 Z M 165.51 280.46 L 170.40 279.23 L 174.07 282.90 L 174.07 286.57 L 172.85 287.79 L 166.74 287.79 L 165.51 286.57 Z M 152.06 208.31 L 145.95 205.87 L 137.39 205.87 L 136.17 207.09 L 121.49 205.87 L 108.04 216.87 L 106.82 221.76 L 100.70 229.10 L 98.26 236.44 L 92.15 242.55 L 92.15 252.33 L 88.48 258.45 L 88.48 284.12 L 94.59 289.02 L 95.81 292.68 L 105.60 292.68 L 122.72 279.23 L 137.39 278.01 L 145.95 269.45 L 149.62 254.78 L 149.62 221.76 L 153.28 211.98 Z M 158.18 232.77 L 156.95 235.21 L 158.18 237.66 L 158.18 254.78 L 159.40 259.67 L 161.84 262.11 L 171.63 262.11 L 172.85 258.45 L 170.40 256.00 L 167.96 256.00 L 164.29 251.11 L 165.51 242.55 L 171.63 238.88 L 176.52 231.54 L 180.19 231.54 L 183.85 235.21 L 186.30 241.33 L 194.86 242.55 L 199.75 248.66 L 202.20 248.66 L 204.64 251.11 L 203.42 254.78 L 197.31 253.55 L 186.30 253.55 L 183.85 259.67 L 192.41 271.90 L 211.98 270.67 L 213.20 264.56 L 210.76 258.45 L 210.76 252.33 L 211.98 248.66 L 218.09 244.99 L 243.77 247.44 L 247.44 251.11 L 247.44 262.11 L 236.44 273.12 L 225.43 274.34 L 226.65 278.01 L 243.77 278.01 L 253.55 268.23 L 254.78 256.00 L 256.00 254.78 L 254.78 238.88 L 249.89 233.99 L 240.10 233.99 L 236.44 230.32 L 237.66 214.42 L 236.44 210.76 L 226.65 200.97 L 214.42 199.75 L 213.20 198.53 L 205.87 199.75 L 198.53 205.87 L 192.41 208.31 L 177.74 224.21 L 170.40 224.21 L 165.51 229.10 Z M 199.75 152.06 L 200.97 159.40 L 207.09 161.84 L 218.09 161.84 L 214.42 158.18 L 211.98 150.84 L 200.97 150.84 Z M 241.33 150.84 L 241.33 156.95 L 243.77 159.40 L 252.33 160.62 L 256.00 163.07 L 260.89 163.07 L 263.34 158.18 L 263.34 152.06 L 260.89 149.62 Z M 178.96 137.39 L 183.85 141.06 L 186.30 145.95 L 191.19 144.73 L 188.75 142.28 L 187.52 136.17 L 185.08 134.94 Z M 226.65 128.83 L 218.09 137.39 L 221.76 141.06 L 222.98 148.39 L 226.65 152.06 L 232.77 149.62 L 238.88 149.62 L 238.88 138.61 L 235.21 133.72 L 230.32 132.50 Z M 251.11 127.61 L 249.89 128.83 L 251.11 137.39 L 259.67 139.83 L 260.89 138.61 L 260.89 128.83 L 259.67 127.61 Z M 351.38 127.61 L 340.37 125.16 L 331.81 126.38 L 322.03 136.17 L 320.81 145.95 L 333.04 153.28 L 342.82 152.06 L 348.93 144.73 L 348.93 136.17 L 352.60 130.05 Z M 133.72 128.83 L 138.61 139.83 L 147.17 139.83 L 149.62 142.28 L 148.39 147.17 L 145.95 149.62 L 142.28 149.62 L 139.83 154.51 L 132.50 160.62 L 133.72 186.30 L 142.28 197.31 L 154.51 198.53 L 155.73 199.75 L 175.30 198.53 L 181.41 196.08 L 185.08 191.19 L 192.41 187.52 L 204.64 187.52 L 210.76 189.97 L 215.65 188.75 L 219.32 189.97 L 236.44 189.97 L 242.55 197.31 L 249.89 200.97 L 251.11 211.98 L 256.00 205.87 L 260.89 205.87 L 270.67 214.42 L 273.12 220.54 L 280.46 226.65 L 281.68 230.32 L 292.68 231.54 L 301.24 240.10 L 315.92 240.10 L 317.14 238.88 L 331.81 237.66 L 348.93 220.54 L 350.16 210.76 L 345.26 204.64 L 342.82 196.08 L 345.26 185.08 L 345.26 175.30 L 346.49 174.07 L 351.38 174.07 L 356.27 177.74 L 362.38 178.96 L 367.27 187.52 L 377.06 188.75 L 380.73 192.41 L 383.17 189.97 L 383.17 174.07 L 381.95 170.40 L 373.39 170.40 L 366.05 177.74 L 363.61 177.74 L 361.16 175.30 L 361.16 169.18 L 364.83 165.51 L 368.50 164.29 L 367.27 159.40 L 356.27 159.40 L 350.16 166.74 L 346.49 167.96 L 342.82 174.07 L 340.37 174.07 L 324.48 158.18 L 301.24 158.18 L 300.02 156.95 L 292.68 156.95 L 285.35 160.62 L 275.56 160.62 L 273.12 166.74 L 267.01 170.40 L 267.01 176.52 L 263.34 181.41 L 260.89 188.75 L 257.22 188.75 L 252.33 182.63 L 247.44 181.41 L 238.88 174.07 L 216.87 174.07 L 204.64 178.96 L 198.53 183.85 L 194.86 183.85 L 191.19 177.74 L 191.19 161.84 L 182.63 154.51 L 181.41 150.84 L 176.52 150.84 L 172.85 147.17 L 171.63 142.28 L 149.62 141.06 L 148.39 139.83 L 149.62 128.83 L 145.95 125.16 L 138.61 125.16 Z M 280.46 208.31 L 285.35 207.09 L 287.79 209.53 L 287.79 211.98 L 282.90 213.20 L 280.46 210.76 Z M 339.15 193.64 L 335.48 210.76 L 325.70 220.54 L 323.25 221.76 L 292.68 221.76 L 290.24 219.32 L 291.46 214.42 L 295.13 215.65 L 315.92 215.65 L 318.36 214.42 L 320.81 208.31 L 328.15 203.42 L 328.15 200.97 L 320.81 193.64 L 320.81 182.63 L 322.03 181.41 L 328.15 182.63 Z M 149.62 183.85 L 153.28 181.41 L 158.18 182.63 L 169.18 181.41 L 172.85 183.85 L 172.85 187.52 L 167.96 189.97 L 152.06 189.97 L 149.62 187.52 Z M 313.47 176.52 L 317.14 175.30 L 318.36 178.96 L 314.69 180.19 Z M 308.58 166.74 L 311.03 169.18 L 311.03 172.85 L 307.36 175.30 L 298.80 175.30 L 281.68 191.19 L 280.46 203.42 L 278.01 205.87 L 275.56 205.87 L 271.90 202.20 L 273.12 186.30 L 279.23 182.63 L 280.46 178.96 L 284.12 175.30 L 286.57 175.30 L 291.46 167.96 Z M 144.73 159.40 L 149.62 160.62 L 149.62 175.30 L 147.17 180.19 L 142.28 178.96 L 142.28 164.29 Z M 175.30 158.18 L 180.19 158.18 L 182.63 160.62 L 181.41 177.74 L 178.96 180.19 L 174.07 178.96 L 174.07 159.40 Z M 150.84 153.28 L 153.28 150.84 L 171.63 150.84 L 172.85 155.73 L 166.74 158.18 L 153.28 158.18 L 150.84 155.73 Z M 433.31 123.94 L 414.96 123.94 L 413.74 122.72 L 410.07 123.94 L 408.85 128.83 L 406.40 131.27 L 395.40 133.72 L 392.95 138.61 L 386.84 142.28 L 385.62 147.17 L 388.06 149.62 L 394.18 150.84 L 402.74 159.40 L 403.96 164.29 L 410.07 166.74 L 413.74 170.40 L 416.19 167.96 L 417.41 160.62 L 421.08 156.95 L 425.97 156.95 L 430.86 161.84 L 433.31 158.18 L 435.75 148.39 L 435.75 126.38 Z M 298.80 117.82 L 289.02 119.05 L 281.68 122.72 L 276.79 127.61 L 276.79 138.61 L 281.68 143.50 L 290.24 148.39 L 292.68 148.39 L 296.35 144.73 L 298.80 138.61 L 304.91 139.83 L 311.03 138.61 L 311.03 128.83 L 308.58 126.38 L 306.13 126.38 L 302.47 120.27 Z M 193.64 110.49 L 191.19 114.16 L 191.19 125.16 L 194.86 130.05 L 202.20 130.05 L 204.64 123.94 L 204.64 114.16 L 200.97 110.49 Z M 160.62 101.93 L 158.18 104.37 L 159.40 115.38 L 165.51 117.82 L 170.40 116.60 L 174.07 111.71 L 172.85 103.15 Z M 364.83 94.59 L 362.38 100.70 L 362.38 111.71 L 364.83 115.38 L 368.50 116.60 L 374.61 122.72 L 383.17 114.16 L 384.39 110.49 L 383.17 103.15 L 379.50 101.93 L 375.83 98.26 L 374.61 94.59 Z M 307.36 97.04 L 307.36 104.37 L 315.92 112.93 L 322.03 112.93 L 330.59 115.38 L 341.60 112.93 L 341.60 104.37 L 337.93 103.15 L 334.26 99.48 L 333.04 95.81 L 324.48 87.25 L 315.92 88.48 Z M 267.01 88.48 L 254.78 87.25 L 240.10 95.81 L 241.33 101.93 L 243.77 104.37 L 243.77 111.71 L 246.22 114.16 L 253.55 115.38 L 260.89 111.71 L 267.01 105.60 L 269.45 100.70 L 269.45 93.37 Z M 229.10 79.92 L 222.98 78.69 L 219.32 79.92 L 213.20 86.03 L 204.64 87.25 L 202.20 89.70 L 202.20 95.81 L 207.09 98.26 L 210.76 98.26 L 219.32 103.15 L 221.76 93.37 L 227.88 87.25 Z M 331.81 53.02 L 329.37 55.46 L 328.15 61.58 L 329.37 66.47 L 336.70 67.69 L 341.60 65.24 L 335.48 55.46 Z M 249.89 46.90 L 248.66 49.35 L 249.89 56.68 L 252.33 59.13 L 260.89 60.35 L 264.56 64.02 L 265.78 73.80 L 279.23 73.80 L 281.68 71.36 L 281.68 64.02 L 284.12 61.58 L 293.91 61.58 L 296.35 60.35 L 298.80 55.46 L 302.47 56.68 L 302.47 64.02 L 295.13 68.91 L 296.35 73.80 L 300.02 75.03 L 302.47 72.58 L 302.47 68.91 L 304.91 66.47 L 309.80 65.24 L 311.03 62.80 L 311.03 56.68 L 302.47 50.57 L 302.47 46.90 L 286.57 44.46 L 281.68 39.56 L 280.46 34.67 L 276.79 33.45 L 264.56 34.67 L 258.45 42.01 Z M 175.30 34.67 L 172.85 37.12 L 172.85 54.24 L 176.52 72.58 L 178.96 72.58 L 183.85 67.69 L 186.30 67.69 L 193.64 75.03 L 211.98 73.80 L 213.20 70.13 L 216.87 66.47 L 220.54 65.24 L 221.76 54.24 L 220.54 51.79 L 218.09 51.79 L 213.20 44.46 L 203.42 42.01 L 199.75 38.34 L 199.75 35.90 L 194.86 33.45 L 193.64 34.67 Z"/>
<path class="c4" d="M 205.87 444.31 L 205.87 447.98 L 214.42 451.65 L 218.09 455.32 L 225.43 449.20 L 232.77 449.20 L 233.99 450.42 L 237.66 447.98 L 236.44 441.87 L 226.65 440.64 L 221.76 435.75 L 214.42 436.97 Z M 231.54 429.64 L 233.99 433.31 L 249.89 433.31 L 256.00 438.20 L 256.00 446.76 L 260.89 450.42 L 267.01 450.42 L 271.90 447.98 L 284.12 447.98 L 292.68 440.64 L 292.68 438.20 L 287.79 434.53 L 281.68 424.75 L 276.79 405.18 L 268.23 402.74 L 259.67 402.74 L 240.10 421.08 L 237.66 425.97 Z M 236.44 366.05 L 235.21 364.83 L 233.99 368.50 L 230.32 372.17 L 226.65 373.39 L 226.65 377.06 L 222.98 380.73 L 219.32 381.95 L 226.65 381.95 L 229.10 377.06 L 236.44 372.17 Z M 216.87 356.27 L 216.87 358.72 L 219.32 359.94 L 229.10 358.72 L 227.88 355.05 L 218.09 355.05 Z M 192.41 356.27 L 194.86 359.94 L 202.20 359.94 L 204.64 357.49 L 202.20 355.05 L 193.64 355.05 Z M 167.96 346.49 L 166.74 347.71 L 166.74 357.49 L 170.40 359.94 L 177.74 359.94 L 180.19 357.49 L 181.41 348.93 L 178.96 346.49 Z M 120.27 341.60 L 120.27 357.49 L 121.49 357.49 L 121.49 341.60 Z M 137.39 339.15 L 136.17 341.60 L 136.17 357.49 L 141.06 362.38 L 142.28 368.50 L 148.39 372.17 L 148.39 375.83 L 142.28 377.06 L 138.61 373.39 L 133.72 372.17 L 130.05 368.50 L 128.83 364.83 L 127.61 370.94 L 133.72 377.06 L 134.94 381.95 L 145.95 392.95 L 152.06 392.95 L 160.62 400.29 L 198.53 399.07 L 199.75 397.84 L 226.65 397.84 L 202.20 397.84 L 196.08 395.40 L 175.30 395.40 L 165.51 391.73 L 164.29 386.84 L 167.96 383.17 L 178.96 385.62 L 192.41 385.62 L 194.86 384.39 L 196.08 379.50 L 203.42 372.17 L 202.20 370.94 L 169.18 370.94 L 164.29 368.50 L 148.39 351.38 L 145.95 342.82 L 145.95 333.04 L 144.73 331.81 L 142.28 336.70 Z M 149.62 379.50 L 155.73 378.28 L 158.18 380.73 L 158.18 383.17 L 152.06 384.39 L 149.62 381.95 Z M 89.70 331.81 L 88.48 333.04 L 88.48 340.37 L 93.37 341.60 L 95.81 345.26 L 95.81 364.83 L 101.93 367.27 L 104.37 370.94 L 104.37 397.84 L 110.49 405.18 L 111.71 413.74 L 123.94 417.41 L 128.83 424.75 L 138.61 425.97 L 145.95 433.31 L 158.18 433.31 L 159.40 432.08 L 171.63 430.86 L 172.85 429.64 L 170.40 427.19 L 155.73 425.97 L 149.62 423.52 L 145.95 418.63 L 134.94 416.19 L 119.05 400.29 L 116.60 390.51 L 108.04 381.95 L 108.04 373.39 L 105.60 369.72 L 105.60 366.05 L 97.04 357.49 L 95.81 331.81 Z M 161.84 330.59 L 159.40 331.81 L 159.40 341.60 L 160.62 342.82 L 164.29 341.60 L 164.29 333.04 Z M 225.43 322.03 L 222.98 325.70 L 224.21 334.26 L 236.44 335.48 L 238.88 331.81 L 237.66 322.03 L 232.77 320.81 Z M 200.97 322.03 L 199.75 323.25 L 199.75 333.04 L 202.20 335.48 L 210.76 335.48 L 213.20 333.04 L 213.20 323.25 L 208.31 320.81 Z M 176.52 313.47 L 175.30 314.69 L 175.30 325.70 L 178.96 328.15 L 187.52 326.92 L 189.97 319.59 L 188.75 313.47 Z M 191.19 311.03 L 218.09 308.58 L 213.20 306.13 L 194.86 304.91 L 191.19 307.36 Z M 152.06 297.58 L 149.62 300.02 L 150.84 309.80 L 152.06 311.03 L 163.07 311.03 L 164.29 309.80 L 163.07 301.24 L 160.62 298.80 Z M 169.18 289.02 L 166.74 292.68 L 170.40 295.13 L 172.85 291.46 Z M 160.62 281.68 L 158.18 284.12 L 161.84 285.35 L 163.07 282.90 Z M 167.96 276.79 L 172.85 278.01 L 177.74 285.35 L 180.19 284.12 L 180.19 275.56 L 178.96 274.34 L 169.18 274.34 Z M 390.51 259.67 L 381.95 259.67 L 374.61 265.78 L 370.94 273.12 L 361.16 280.46 L 359.94 285.35 L 353.82 292.68 L 355.05 302.47 L 358.72 303.69 L 362.38 308.58 L 362.38 317.14 L 374.61 328.15 L 381.95 328.15 L 389.28 319.59 L 390.51 315.92 L 389.28 313.47 L 379.50 312.25 L 369.72 302.47 L 368.50 292.68 L 372.17 290.24 L 381.95 290.24 L 389.28 297.58 L 395.40 291.46 L 395.40 275.56 L 392.95 273.12 Z M 186.30 258.45 L 191.19 263.34 L 193.64 269.45 L 210.76 269.45 L 211.98 268.23 L 209.53 262.11 L 200.97 262.11 L 196.08 258.45 Z M 175.30 298.80 L 176.52 302.47 L 187.52 302.47 L 189.97 295.13 L 200.97 295.13 L 202.20 296.35 L 210.76 293.91 L 238.88 292.68 L 242.55 296.35 L 242.55 300.02 L 251.11 300.02 L 258.45 302.47 L 271.90 315.92 L 274.34 324.48 L 282.90 333.04 L 282.90 340.37 L 290.24 346.49 L 291.46 351.38 L 297.58 357.49 L 298.80 364.83 L 306.13 369.72 L 307.36 372.17 L 307.36 391.73 L 313.47 397.84 L 313.47 406.40 L 314.69 407.63 L 317.14 407.63 L 319.59 405.18 L 319.59 397.84 L 324.48 392.95 L 326.92 386.84 L 330.59 383.17 L 335.48 381.95 L 334.26 370.94 L 317.14 353.82 L 308.58 353.82 L 297.58 344.04 L 298.80 339.15 L 325.70 337.93 L 335.48 333.04 L 341.60 326.92 L 346.49 315.92 L 346.49 287.79 L 342.82 281.68 L 342.82 276.79 L 318.36 249.89 L 314.69 248.66 L 307.36 251.11 L 290.24 251.11 L 276.79 247.44 L 273.12 251.11 L 274.34 254.78 L 273.12 262.11 L 265.78 268.23 L 265.78 276.79 L 252.33 290.24 L 247.44 291.46 L 209.53 290.24 L 203.42 282.90 L 194.86 282.90 L 191.19 287.79 L 188.75 296.35 L 182.63 296.35 Z M 147.17 208.31 L 120.27 208.31 L 109.26 219.32 L 106.82 227.88 L 103.15 231.54 L 95.81 244.99 L 95.81 275.56 L 100.70 278.01 L 104.37 284.12 L 111.71 284.12 L 112.93 280.46 L 119.05 275.56 L 136.17 275.56 L 145.95 265.78 L 147.17 253.55 L 148.39 252.33 L 148.39 218.09 L 149.62 216.87 L 149.62 210.76 Z M 159.40 233.99 L 160.62 257.22 L 161.84 259.67 L 170.40 260.89 L 170.40 258.45 L 166.74 257.22 L 163.07 253.55 L 163.07 243.77 L 172.85 235.21 L 175.30 229.10 L 180.19 229.10 L 187.52 237.66 L 196.08 240.10 L 203.42 244.99 L 210.76 246.22 L 213.20 243.77 L 222.98 243.77 L 224.21 244.99 L 243.77 246.22 L 248.66 251.11 L 249.89 263.34 L 246.22 267.01 L 242.55 268.23 L 240.10 274.34 L 227.88 275.56 L 242.55 275.56 L 243.77 271.90 L 252.33 265.78 L 252.33 259.67 L 254.78 252.33 L 253.55 240.10 L 249.89 236.44 L 240.10 236.44 L 238.88 237.66 L 226.65 237.66 L 225.43 236.44 L 225.43 233.99 L 233.99 225.43 L 236.44 220.54 L 236.44 216.87 L 233.99 211.98 L 225.43 203.42 L 220.54 200.97 L 208.31 200.97 L 203.42 203.42 L 199.75 207.09 L 194.86 208.31 L 178.96 225.43 L 170.40 226.65 Z M 301.24 177.74 L 284.12 194.86 L 284.12 202.20 L 293.91 211.98 L 298.80 214.42 L 315.92 213.20 L 319.59 207.09 L 325.70 203.42 L 325.70 200.97 L 320.81 197.31 L 318.36 191.19 L 318.36 185.08 L 315.92 182.63 L 313.47 182.63 L 307.36 177.74 Z M 373.39 177.74 L 372.17 178.96 L 372.17 185.08 L 373.39 186.30 L 380.73 186.30 L 381.95 185.08 L 381.95 178.96 L 379.50 176.52 Z M 205.87 185.08 L 208.31 187.52 L 238.88 188.75 L 241.33 191.19 L 242.55 196.08 L 246.22 196.08 L 252.33 199.75 L 256.00 197.31 L 256.00 192.41 L 253.55 186.30 L 247.44 185.08 L 244.99 187.52 L 242.55 187.52 L 241.33 186.30 L 241.33 178.96 L 237.66 175.30 L 218.09 175.30 L 213.20 177.74 Z M 366.05 160.62 L 356.27 160.62 L 355.05 164.29 L 347.71 170.40 L 356.27 174.07 L 358.72 171.63 L 358.72 169.18 L 366.05 163.07 Z M 279.23 164.29 L 278.01 169.18 L 275.56 171.63 L 270.67 172.85 L 269.45 177.74 L 263.34 186.30 L 262.11 192.41 L 262.11 202.20 L 270.67 209.53 L 274.34 219.32 L 284.12 229.10 L 293.91 230.32 L 301.24 237.66 L 315.92 237.66 L 324.48 235.21 L 333.04 235.21 L 331.81 226.65 L 335.48 225.43 L 339.15 221.76 L 339.15 219.32 L 346.49 214.42 L 346.49 209.53 L 341.60 198.53 L 339.15 200.97 L 336.70 211.98 L 325.70 222.98 L 291.46 222.98 L 287.79 219.32 L 286.57 215.65 L 281.68 214.42 L 276.79 208.31 L 270.67 207.09 L 269.45 204.64 L 269.45 193.64 L 271.90 185.08 L 282.90 174.07 L 286.57 172.85 L 287.79 169.18 L 291.46 165.51 L 309.80 164.29 L 323.25 178.96 L 329.37 180.19 L 339.15 189.97 L 341.60 189.97 L 342.82 187.52 L 342.82 177.74 L 337.93 175.30 L 334.26 169.18 L 330.59 167.96 L 326.92 164.29 L 325.70 160.62 L 289.02 159.40 L 284.12 163.07 Z M 170.40 159.40 L 153.28 163.07 L 153.28 171.63 L 150.84 177.74 L 153.28 180.19 L 170.40 180.19 L 171.63 178.96 L 172.85 167.96 Z M 200.97 153.28 L 203.42 156.95 L 210.76 158.18 L 211.98 155.73 L 210.76 152.06 L 202.20 152.06 Z M 176.52 152.06 L 177.74 155.73 L 180.19 154.51 L 178.96 152.06 Z M 243.77 153.28 L 244.99 156.95 L 256.00 160.62 L 259.67 160.62 L 262.11 155.73 L 262.11 153.28 L 259.67 150.84 L 248.66 150.84 Z M 152.06 142.28 L 149.62 149.62 L 143.50 150.84 L 141.06 156.95 L 137.39 158.18 L 133.72 161.84 L 136.17 187.52 L 147.17 197.31 L 164.29 198.53 L 165.51 197.31 L 174.07 197.31 L 180.19 194.86 L 185.08 188.75 L 191.19 186.30 L 189.97 165.51 L 187.52 160.62 L 183.85 161.84 L 182.63 178.96 L 178.96 182.63 L 176.52 182.63 L 174.07 185.08 L 174.07 187.52 L 169.18 191.19 L 150.84 191.19 L 147.17 187.52 L 147.17 185.08 L 139.83 178.96 L 141.06 160.62 L 143.50 158.18 L 148.39 156.95 L 149.62 150.84 L 150.84 149.62 L 164.29 149.62 L 169.18 148.39 L 171.63 145.95 L 169.18 143.50 L 164.29 142.28 Z M 226.65 132.50 L 221.76 137.39 L 224.21 147.17 L 226.65 149.62 L 236.44 148.39 L 237.66 147.17 L 236.44 137.39 Z M 252.33 130.05 L 258.45 136.17 L 258.45 130.05 Z M 308.58 128.83 L 306.13 128.83 L 306.13 137.39 L 307.36 138.61 L 309.80 136.17 Z M 334.26 127.61 L 323.25 138.61 L 322.03 144.73 L 333.04 150.84 L 341.60 150.84 L 346.49 144.73 L 346.49 134.94 L 350.16 130.05 L 346.49 127.61 Z M 137.39 127.61 L 136.17 128.83 L 137.39 132.50 L 142.28 137.39 L 145.95 137.39 L 148.39 130.05 L 147.17 127.61 L 144.73 126.38 Z M 433.31 127.61 L 429.64 125.16 L 416.19 126.38 L 412.52 130.05 L 411.30 133.72 L 397.84 134.94 L 395.40 137.39 L 395.40 141.06 L 389.28 143.50 L 388.06 145.95 L 392.95 147.17 L 397.84 142.28 L 407.63 142.28 L 411.30 139.83 L 411.30 136.17 L 414.96 134.94 L 417.41 141.06 L 424.75 145.95 L 424.75 148.39 L 422.30 150.84 L 412.52 150.84 L 410.07 155.73 L 406.40 158.18 L 406.40 161.84 L 413.74 164.29 L 414.96 158.18 L 418.63 154.51 L 424.75 153.28 L 432.08 148.39 L 433.31 144.73 Z M 300.02 120.27 L 291.46 120.27 L 282.90 123.94 L 279.23 127.61 L 278.01 134.94 L 279.23 138.61 L 282.90 142.28 L 290.24 145.95 L 293.91 144.73 L 297.58 136.17 L 297.58 126.38 L 300.02 123.94 Z M 199.75 112.93 L 194.86 112.93 L 192.41 116.60 L 192.41 123.94 L 194.86 126.38 L 199.75 125.16 L 202.20 121.49 L 202.20 114.16 Z M 161.84 103.15 L 160.62 104.37 L 160.62 112.93 L 163.07 115.38 L 170.40 114.16 L 171.63 112.93 L 171.63 104.37 Z M 367.27 95.81 L 364.83 97.04 L 364.83 111.71 L 368.50 112.93 L 373.39 119.05 L 377.06 114.16 L 381.95 111.71 L 381.95 105.60 L 375.83 103.15 L 372.17 95.81 Z M 312.25 95.81 L 311.03 103.15 L 317.14 109.26 L 325.70 109.26 L 330.59 111.71 L 334.26 111.71 L 334.26 105.60 L 329.37 97.04 L 324.48 92.15 L 317.14 92.15 Z M 260.89 89.70 L 251.11 90.92 L 242.55 95.81 L 246.22 104.37 L 246.22 109.26 L 248.66 112.93 L 253.55 112.93 L 258.45 110.49 L 265.78 103.15 L 268.23 98.26 L 268.23 94.59 Z M 219.32 87.25 L 210.76 88.48 L 209.53 89.70 L 209.53 95.81 L 218.09 97.04 Z M 333.04 56.68 L 330.59 64.02 L 335.48 65.24 L 336.70 62.80 Z M 308.58 56.68 L 307.36 56.68 L 307.36 64.02 L 308.58 62.80 Z M 267.01 38.34 L 263.34 42.01 L 251.11 48.12 L 251.11 55.46 L 254.78 57.91 L 262.11 59.13 L 267.01 64.02 L 267.01 71.36 L 268.23 72.58 L 276.79 72.58 L 278.01 62.80 L 285.35 56.68 L 292.68 56.68 L 295.13 51.79 L 300.02 48.12 L 284.12 46.90 L 276.79 38.34 Z M 175.30 37.12 L 175.30 56.68 L 177.74 61.58 L 189.97 65.24 L 192.41 67.69 L 193.64 72.58 L 209.53 72.58 L 210.76 71.36 L 209.53 68.91 L 202.20 68.91 L 193.64 60.35 L 185.08 60.35 L 183.85 59.13 L 183.85 55.46 L 189.97 53.02 L 193.64 45.68 L 196.08 45.68 L 198.53 51.79 L 200.97 53.02 L 210.76 53.02 L 213.20 55.46 L 214.42 62.80 L 215.65 64.02 L 219.32 62.80 L 220.54 56.68 L 219.32 54.24 L 213.20 51.79 L 210.76 45.68 L 196.08 44.46 L 194.86 38.34 L 186.30 35.90 Z"/>
<path class="c5" d="M 219.32 443.09 L 218.09 443.09 L 216.87 446.76 L 220.54 445.53 Z M 268.23 422.30 L 267.01 423.52 L 267.01 429.64 L 270.67 430.86 L 275.56 435.75 L 275.56 438.20 L 282.90 438.20 L 276.79 434.53 L 275.56 422.30 Z M 160.62 395.40 L 160.62 397.84 L 163.07 399.07 L 174.07 397.84 L 163.07 394.18 Z M 143.50 381.95 L 145.95 390.51 L 149.62 391.73 L 156.95 391.73 L 158.18 390.51 L 156.95 388.06 L 150.84 386.84 Z M 219.32 357.49 L 226.65 357.49 L 225.43 356.27 Z M 194.86 356.27 L 194.86 357.49 L 202.20 357.49 L 200.97 356.27 Z M 169.18 347.71 L 167.96 348.93 L 169.18 357.49 L 177.74 357.49 L 178.96 356.27 L 178.96 348.93 L 177.74 347.71 Z M 141.06 348.93 L 141.06 357.49 L 143.50 359.94 L 143.50 363.61 L 154.51 375.83 L 167.96 377.06 L 177.74 383.17 L 192.41 383.17 L 194.86 380.73 L 194.86 378.28 L 198.53 374.61 L 202.20 373.39 L 200.97 372.17 L 165.51 372.17 L 147.17 355.05 L 144.73 345.26 Z M 161.84 333.04 L 160.62 334.26 L 161.84 340.37 Z M 226.65 323.25 L 225.43 324.48 L 225.43 333.04 L 226.65 334.26 L 235.21 334.26 L 236.44 333.04 L 236.44 324.48 L 235.21 323.25 Z M 202.20 323.25 L 200.97 324.48 L 200.97 333.04 L 202.20 334.26 L 210.76 334.26 L 211.98 333.04 L 211.98 324.48 L 210.76 323.25 Z M 177.74 314.69 L 176.52 315.92 L 176.52 324.48 L 177.74 325.70 L 186.30 325.70 L 187.52 324.48 L 187.52 315.92 L 186.30 314.69 Z M 193.64 307.36 L 194.86 309.80 L 200.97 308.58 Z M 153.28 300.02 L 152.06 301.24 L 152.06 308.58 L 153.28 309.80 L 161.84 309.80 L 163.07 308.58 L 161.84 303.69 Z M 177.74 298.80 L 177.74 301.24 L 186.30 301.24 L 186.30 298.80 Z M 192.41 290.24 L 192.41 292.68 L 194.86 293.91 L 208.31 292.68 L 202.20 285.35 L 194.86 286.57 Z M 366.05 284.12 L 372.17 286.57 L 384.39 286.57 L 388.06 290.24 L 390.51 290.24 L 391.73 279.23 L 389.28 275.56 L 389.28 268.23 L 388.06 267.01 L 381.95 267.01 Z M 315.92 252.33 L 307.36 256.00 L 301.24 263.34 L 297.58 263.34 L 292.68 259.67 L 279.23 258.45 L 276.79 256.00 L 275.56 265.78 L 268.23 269.45 L 268.23 276.79 L 265.78 281.68 L 260.89 284.12 L 259.67 290.24 L 257.22 292.68 L 254.78 292.68 L 260.89 300.02 L 264.56 300.02 L 268.23 303.69 L 268.23 307.36 L 274.34 312.25 L 278.01 319.59 L 291.46 333.04 L 298.80 335.48 L 308.58 335.48 L 318.36 331.81 L 325.70 331.81 L 340.37 317.14 L 340.37 308.58 L 344.04 298.80 L 342.82 290.24 L 337.93 284.12 L 336.70 275.56 L 326.92 265.78 L 324.48 259.67 L 319.59 257.22 Z M 236.44 242.55 L 237.66 243.77 L 241.33 243.77 L 248.66 247.44 L 251.11 256.00 L 252.33 254.78 L 252.33 242.55 L 251.11 240.10 L 240.10 240.10 Z M 170.40 231.54 L 164.29 232.77 L 160.62 235.21 L 161.84 241.33 L 165.51 237.66 L 170.40 236.44 L 171.63 233.99 Z M 335.48 216.87 L 330.59 218.09 L 330.59 220.54 L 334.26 221.76 Z M 276.79 215.65 L 276.79 218.09 L 285.35 226.65 L 295.13 229.10 L 300.02 233.99 L 319.59 233.99 L 325.70 231.54 L 328.15 227.88 L 326.92 225.43 L 293.91 225.43 L 289.02 224.21 L 284.12 216.87 L 278.01 216.87 Z M 123.94 209.53 L 111.71 220.54 L 109.26 230.32 L 104.37 236.44 L 104.37 243.77 L 108.04 247.44 L 109.26 263.34 L 112.93 268.23 L 136.17 268.23 L 144.73 260.89 L 145.95 256.00 L 147.17 216.87 L 145.95 211.98 L 142.28 209.53 Z M 340.37 204.64 L 339.15 213.20 L 341.60 214.42 L 344.04 211.98 L 344.04 208.31 Z M 233.99 218.09 L 225.43 207.09 L 222.98 207.09 L 219.32 203.42 L 209.53 203.42 L 205.87 207.09 L 194.86 210.76 L 193.64 214.42 L 189.97 218.09 L 186.30 219.32 L 185.08 222.98 L 181.41 226.65 L 193.64 237.66 L 197.31 237.66 L 202.20 240.10 L 210.76 240.10 L 216.87 237.66 Z M 300.02 183.85 L 297.58 186.30 L 297.58 188.75 L 291.46 194.86 L 291.46 202.20 L 298.80 211.98 L 312.25 211.98 L 322.03 202.20 L 317.14 197.31 L 315.92 186.30 L 308.58 183.85 Z M 268.23 182.63 L 265.78 185.08 L 267.01 193.64 L 269.45 188.75 Z M 238.88 178.96 L 236.44 176.52 L 218.09 177.74 L 215.65 180.19 L 214.42 185.08 L 218.09 185.08 L 222.98 187.52 L 235.21 187.52 L 237.66 186.30 Z M 278.01 175.30 L 274.34 175.30 L 271.90 178.96 L 275.56 180.19 L 278.01 177.74 Z M 285.35 166.74 L 282.90 166.74 L 280.46 169.18 L 280.46 171.63 L 284.12 171.63 Z M 315.92 163.07 L 317.14 167.96 L 322.03 169.18 L 326.92 177.74 L 334.26 177.74 L 331.81 171.63 L 326.92 170.40 L 324.48 167.96 L 323.25 163.07 Z M 186.30 163.07 L 183.85 169.18 L 183.85 181.41 L 181.41 183.85 L 176.52 185.08 L 175.30 189.97 L 171.63 192.41 L 159.40 192.41 L 155.73 193.64 L 155.73 194.86 L 158.18 196.08 L 172.85 196.08 L 177.74 193.64 L 187.52 183.85 L 188.75 170.40 Z M 169.18 163.07 L 160.62 167.96 L 154.51 177.74 L 169.18 177.74 L 170.40 172.85 Z M 289.02 163.07 L 300.02 164.29 L 306.13 161.84 L 304.91 160.62 L 290.24 160.62 Z M 138.61 160.62 L 136.17 160.62 L 134.94 163.07 L 137.39 176.52 L 139.83 169.18 L 139.83 161.84 Z M 248.66 153.28 L 249.89 155.73 L 254.78 156.95 L 259.67 155.73 L 258.45 152.06 Z M 144.73 152.06 L 143.50 154.51 L 145.95 155.73 L 147.17 153.28 Z M 152.06 144.73 L 153.28 147.17 L 165.51 147.17 L 167.96 145.95 L 163.07 143.50 L 153.28 143.50 Z M 227.88 137.39 L 225.43 141.06 L 225.43 145.95 L 226.65 147.17 L 233.99 147.17 L 236.44 144.73 L 235.21 139.83 L 231.54 137.39 Z M 342.82 130.05 L 334.26 131.27 L 326.92 138.61 L 325.70 145.95 L 331.81 148.39 L 341.60 148.39 L 344.04 144.73 Z M 142.28 128.83 L 141.06 130.05 L 144.73 132.50 L 145.95 128.83 Z M 419.85 128.83 L 418.63 130.05 L 419.85 137.39 L 422.30 139.83 L 429.64 141.06 L 430.86 128.83 L 429.64 127.61 Z M 293.91 123.94 L 286.57 125.16 L 280.46 130.05 L 280.46 136.17 L 282.90 139.83 L 292.68 141.06 L 295.13 132.50 Z M 196.08 119.05 L 193.64 120.27 L 194.86 122.72 L 197.31 121.49 Z M 263.34 94.59 L 251.11 93.37 L 246.22 97.04 L 251.11 110.49 L 257.22 108.04 L 262.11 103.15 L 264.56 98.26 Z M 256.00 48.12 L 256.00 55.46 L 265.78 57.91 L 269.45 60.35 L 274.34 60.35 L 279.23 55.46 L 279.23 46.90 L 276.79 44.46 L 265.78 44.46 Z M 177.74 38.34 L 176.52 42.01 L 178.96 51.79 L 187.52 49.35 L 189.97 39.56 Z"/>
<path class="c6" d="M 177.74 375.83 L 178.96 379.50 L 192.41 379.50 L 192.41 374.61 L 178.96 374.61 Z M 170.40 348.93 L 170.40 353.82 L 176.52 355.05 L 177.74 348.93 Z M 226.65 324.48 L 226.65 331.81 L 227.88 333.04 L 233.99 333.04 L 235.21 331.81 L 235.21 324.48 Z M 202.20 324.48 L 202.20 331.81 L 203.42 333.04 L 209.53 333.04 L 210.76 331.81 L 210.76 324.48 Z M 178.96 315.92 L 177.74 317.14 L 177.74 324.48 L 186.30 324.48 L 186.30 317.14 L 185.08 315.92 Z M 153.28 306.13 L 154.51 308.58 L 161.84 308.58 L 160.62 306.13 L 154.51 303.69 Z M 193.64 291.46 L 194.86 292.68 L 203.42 292.68 L 202.20 289.02 L 198.53 289.02 Z M 317.14 260.89 L 309.80 260.89 L 307.36 268.23 L 301.24 269.45 L 295.13 273.12 L 280.46 273.12 L 268.23 285.35 L 268.23 291.46 L 276.79 300.02 L 278.01 307.36 L 281.68 307.36 L 284.12 309.80 L 285.35 317.14 L 301.24 331.81 L 309.80 330.59 L 320.81 319.59 L 320.81 315.92 L 324.48 312.25 L 328.15 312.25 L 331.81 306.13 L 331.81 302.47 L 334.26 300.02 L 339.15 298.80 L 339.15 291.46 L 335.48 287.79 L 333.04 276.79 Z M 242.55 242.55 L 247.44 243.77 L 251.11 247.44 L 251.11 249.89 L 251.11 243.77 L 249.89 242.55 Z M 169.18 233.99 L 163.07 235.21 L 163.07 236.44 L 169.18 235.21 Z M 291.46 226.65 L 297.58 227.88 L 301.24 230.32 L 324.48 229.10 L 324.48 226.65 Z M 281.68 219.32 L 284.12 220.54 L 284.12 218.09 Z M 139.83 211.98 L 128.83 210.76 L 121.49 215.65 L 112.93 225.43 L 111.71 231.54 L 112.93 260.89 L 134.94 262.11 L 144.73 252.33 L 144.73 216.87 Z M 300.02 208.31 L 302.47 210.76 L 308.58 209.53 L 308.58 208.31 Z M 225.43 210.76 L 220.54 208.31 L 205.87 209.53 L 188.75 225.43 L 188.75 227.88 L 193.64 235.21 L 210.76 236.44 L 220.54 227.88 L 225.43 219.32 Z M 160.62 194.86 L 170.40 194.86 L 170.40 193.64 L 161.84 193.64 Z M 180.19 186.30 L 177.74 186.30 L 177.74 188.75 Z M 236.44 178.96 L 235.21 177.74 L 226.65 178.96 L 222.98 181.41 L 222.98 185.08 L 224.21 186.30 L 231.54 186.30 L 235.21 183.85 Z M 186.30 169.18 L 185.08 170.40 L 185.08 177.74 L 186.30 178.96 Z M 154.51 144.73 L 154.51 145.95 L 163.07 145.95 L 161.84 144.73 Z M 227.88 143.50 L 227.88 145.95 L 233.99 144.73 L 233.99 143.50 Z M 330.59 142.28 L 331.81 145.95 L 341.60 145.95 L 340.37 138.61 L 333.04 138.61 Z M 291.46 127.61 L 287.79 127.61 L 282.90 130.05 L 282.90 137.39 L 285.35 138.61 L 291.46 136.17 L 292.68 132.50 Z M 251.11 95.81 L 249.89 97.04 L 251.11 105.60 L 257.22 104.37 L 259.67 101.93 L 260.89 97.04 L 259.67 95.81 Z"/>
</g></svg>