<?xml version="1.0" encoding="UTF-8"?>
<svg xmlns="http://www.w3.org/2000/svg" width="1080" height="1080" viewBox="0 0 72 72" shape-rendering="crispEdges" role="img" aria-label="Pixel art monster icon">
  <title>Pixel art monster icon</title>
  <g>
    <path fill="#000000" d="M28 50h1v1h-1z"/>
    <path fill="#374a54" d="M15 25h1v1h-1zM15 26h1v1h-1zM15 27h1v1h-1zM53 27h1v1h-1zM15 28h1v1h-1zM52 28h1v1h-1zM14 29h1v1h-1zM55 33h1v1h-1zM54 34h2v1h-2zM53 35h3v1h-3zM53 36h3v1h-3zM53 37h3v1h-3zM53 38h2v1h-2zM53 39h2v1h-2zM52 40h3v1h-3zM52 41h3v1h-3zM52 42h3v1h-3zM53 43h1v1h-1z"/>
    <path fill="#43414f" d="M55 24h1v1h-1zM54 25h1v1h-1zM54 26h1v1h-1zM14 28h1v1h-1zM53 28h1v1h-1zM11 35h1v1h-1zM56 35h1v1h-1zM11 36h1v1h-1zM56 36h1v1h-1zM11 37h1v1h-1zM56 37h1v1h-1zM11 38h1v1h-1zM55 38h1v1h-1zM11 39h1v1h-1zM11 40h1v1h-1zM55 40h1v1h-1zM55 41h1v1h-1zM16 42h1v1h-1zM54 43h1v1h-1zM53 44h1v1h-1zM27 50h1v1h-1z"/>
    <path fill="#4e414e" d="M31 17h1v1h-1zM32 18h1v1h-1zM31 23h1v1h-1zM26 27h1v1h-1zM13 29h1v1h-1zM50 33h1v1h-1zM19 38h1v1h-1zM19 39h1v1h-1zM17 40h1v1h-1zM19 40h1v1h-1zM19 41h1v1h-1zM55 42h1v1h-1zM54 44h1v1h-1zM31 45h1v1h-1zM13 49h1v1h-1zM23 60h1v1h-1zM36 61h2v1h-2zM28 62h7v1h-7z"/>
    <path fill="#4e4851" d="M30 7h2v1h-2zM34 11h1v1h-1zM52 29h2v1h-2zM13 30h1v1h-1zM13 31h1v1h-1zM49 33h1v1h-1zM56 34h1v1h-1zM18 38h1v1h-1zM12 39h1v1h-1zM17 39h1v1h-1zM55 39h1v1h-1zM12 40h1v1h-1zM12 41h1v1h-1zM16 41h1v1h-1zM16 43h1v1h-1zM12 46h1v1h-1zM13 50h1v1h-1zM23 53h4v1h-4zM46 54h1v1h-1zM17 56h1v1h-1zM19 57h1v1h-1zM20 58h1v1h-1zM21 59h1v1h-1zM22 60h1v1h-1zM37 60h3v1h-3zM24 61h2v1h-2zM34 61h2v1h-2zM27 62h1v1h-1z"/>
    <path fill="#4f353f" d="M23 13h1v1h-1zM51 15h1v1h-1zM56 24h1v1h-1zM55 25h1v1h-1zM14 26h1v1h-1zM55 26h1v1h-1zM14 27h1v1h-1zM54 27h2v1h-2zM13 28h1v1h-1zM57 35h1v1h-1zM57 36h1v1h-1zM57 37h1v1h-1zM57 38h1v1h-1zM18 40h1v1h-1zM56 40h1v1h-1zM18 41h1v1h-1zM56 41h1v1h-1zM53 45h1v1h-1zM52 47h1v1h-1zM54 47h1v1h-1zM51 48h1v1h-1zM55 48h1v1h-1zM28 49h2v1h-2zM54 49h2v1h-2zM52 53h1v1h-1zM45 54h1v1h-1zM44 56h2v1h-2zM43 57h2v1h-2z"/>
    <path fill="#515459" d="M55 23h1v1h-1zM54 24h1v1h-1zM53 26h1v1h-1zM19 27h1v1h-1zM51 27h2v1h-2zM55 32h1v1h-1zM12 33h1v1h-1zM51 33h1v1h-1zM54 33h1v1h-1zM12 34h1v1h-1zM53 34h1v1h-1zM12 35h1v1h-1zM12 36h1v1h-1zM12 37h1v1h-1zM28 37h1v1h-1zM12 38h1v1h-1zM52 39h1v1h-1zM16 40h1v1h-1zM20 41h1v1h-1zM12 42h1v1h-1zM15 42h1v1h-1zM12 43h1v1h-1zM15 43h1v1h-1zM16 44h1v1h-1zM33 44h1v1h-1zM16 45h1v1h-1zM32 45h2v1h-2zM31 46h2v1h-2z"/>
    <path fill="#554b51" d="M31 22h1v1h-1zM16 27h1v1h-1zM51 29h1v1h-1zM56 33h1v1h-1zM35 34h1v1h-1zM19 42h1v1h-1zM52 43h1v1h-1zM12 47h1v1h-1zM34 48h1v1h-1zM52 48h1v1h-1zM48 51h1v1h-1zM20 52h1v1h-1zM22 53h1v1h-1zM27 53h3v1h-3zM42 57h1v1h-1zM36 60h1v1h-1zM33 61h1v1h-1z"/>
    <path fill="#573942" d="M32 7h2v1h-2zM39 7h2v1h-2zM48 12h1v1h-1zM24 13h1v1h-1zM48 13h2v1h-2zM22 14h2v1h-2zM50 14h1v1h-1zM39 15h1v1h-1zM38 16h2v1h-2zM51 16h1v1h-1zM20 17h1v1h-1zM25 18h1v1h-1zM28 20h1v1h-1zM17 22h1v1h-1zM16 23h1v1h-1zM47 29h1v1h-1zM50 30h1v1h-1zM24 33h1v1h-1zM45 33h1v1h-1zM29 37h1v1h-1zM18 39h1v1h-1zM57 39h1v1h-1zM17 41h1v1h-1zM17 42h1v1h-1zM22 42h1v1h-1zM24 44h3v1h-3zM26 45h5v1h-5zM54 45h1v1h-1zM36 46h1v1h-1zM53 46h2v1h-2zM36 47h1v1h-1zM37 48h1v1h-1zM53 48h1v1h-1zM39 53h1v1h-1zM46 53h1v1h-1zM43 54h1v1h-1zM50 54h2v1h-2zM40 55h5v1h-5zM48 55h2v1h-2zM42 56h2v1h-2zM46 56h2v1h-2zM40 59h2v1h-2z"/>
    <path fill="#5a2e3e" d="M51 45h2v1h-2zM50 46h3v1h-3zM50 47h2v1h-2zM53 47h1v1h-1zM29 48h1v1h-1zM49 48h2v1h-2zM54 48h1v1h-1zM49 49h1v1h-1zM48 50h1v1h-1zM53 50h2v1h-2zM47 51h1v1h-1zM53 51h2v1h-2zM46 52h1v1h-1zM52 52h2v1h-2zM45 53h1v1h-1zM44 54h1v1h-1zM45 55h1v1h-1z"/>
    <path fill="#5a4049" d="M30 11h1v1h-1zM21 16h1v1h-1zM31 16h1v1h-1zM46 17h1v1h-1zM25 28h1v1h-1zM33 30h1v1h-1zM46 31h1v1h-1zM45 32h1v1h-1zM49 32h1v1h-1zM44 33h1v1h-1zM45 34h1v1h-1zM22 36h1v1h-1zM56 38h1v1h-1zM21 42h1v1h-1zM23 42h1v1h-1zM52 44h1v1h-1zM38 50h1v1h-1zM49 50h1v1h-1zM47 52h1v1h-1zM39 54h1v1h-1zM41 56h1v1h-1z"/>
    <path fill="#5f5d5e" d="M33 10h1v1h-1zM55 17h1v1h-1zM57 19h1v1h-1zM57 20h1v1h-1zM50 28h1v1h-1zM54 30h1v1h-1zM53 31h2v1h-2zM52 32h1v1h-1zM48 33h1v1h-1zM48 34h1v1h-1zM34 36h1v1h-1zM33 37h1v1h-1zM52 49h1v1h-1zM19 51h1v1h-1zM21 52h1v1h-1zM21 53h1v1h-1zM30 53h1v1h-1zM47 53h1v1h-1zM23 54h4v1h-4zM18 56h1v1h-1zM41 57h1v1h-1zM22 58h1v1h-1zM42 58h1v1h-1zM24 59h1v1h-1zM26 60h1v1h-1zM28 61h2v1h-2z"/>
    <path fill="#5f6564" d="M16 28h1v1h-1zM51 28h1v1h-1zM15 29h1v1h-1zM14 30h1v1h-1zM13 32h1v1h-1zM53 32h2v1h-2zM52 33h2v1h-2zM51 34h2v1h-2zM52 35h1v1h-1zM52 36h1v1h-1zM20 40h1v1h-1zM51 40h1v1h-1zM20 42h1v1h-1zM33 46h1v1h-1zM32 47h2v1h-2zM33 48h1v1h-1zM29 50h1v1h-1zM47 54h1v1h-1z"/>
    <path fill="#644b52" d="M33 11h1v1h-1zM34 12h1v1h-1zM29 16h2v1h-2zM30 17h1v1h-1zM50 17h1v1h-1zM31 18h1v1h-1zM53 25h1v1h-1zM51 26h1v1h-1zM18 27h1v1h-1zM31 27h1v1h-1zM49 27h1v1h-1zM23 28h2v1h-2zM32 28h1v1h-1zM46 28h1v1h-1zM23 29h2v1h-2zM50 29h1v1h-1zM22 30h1v1h-1zM50 32h1v1h-1zM56 32h1v1h-1zM46 33h1v1h-1zM24 34h1v1h-1zM46 34h1v1h-1zM24 35h1v1h-1zM21 36h1v1h-1zM29 36h1v1h-1zM18 42h1v1h-1zM21 43h1v1h-1zM23 43h1v1h-1zM25 45h1v1h-1zM28 46h1v1h-1zM36 48h1v1h-1zM37 49h1v1h-1zM51 49h1v1h-1zM53 49h1v1h-1zM52 50h1v1h-1zM38 51h1v1h-1zM46 51h1v1h-1zM38 52h1v1h-1zM45 52h1v1h-1zM44 53h1v1h-1zM51 53h1v1h-1zM39 55h1v1h-1zM46 55h2v1h-2zM40 56h1v1h-1zM39 59h1v1h-1z"/>
    <path fill="#654048" d="M32 10h1v1h-1zM31 11h1v1h-1zM32 12h1v1h-1zM41 12h1v1h-1zM47 13h1v1h-1zM21 15h1v1h-1zM31 15h1v1h-1zM37 16h1v1h-1zM21 17h1v1h-1zM25 17h1v1h-1zM29 17h1v1h-1zM24 18h1v1h-1zM42 18h1v1h-1zM47 18h1v1h-1zM22 19h1v1h-1zM27 20h1v1h-1zM36 21h1v1h-1zM40 21h1v1h-1zM47 21h1v1h-1zM45 22h1v1h-1zM49 22h1v1h-1zM30 23h1v1h-1zM34 24h1v1h-1zM46 27h1v1h-1zM48 27h1v1h-1zM47 28h1v1h-1zM54 28h1v1h-1zM48 29h1v1h-1zM47 30h1v1h-1zM49 30h1v1h-1zM51 30h1v1h-1zM50 31h1v1h-1zM46 32h1v1h-1zM32 34h1v1h-1zM30 35h2v1h-2zM56 39h1v1h-1zM56 42h1v1h-1zM55 47h1v1h-1zM48 49h1v1h-1zM50 49h1v1h-1zM47 50h1v1h-1zM52 51h1v1h-1z"/>
    <path fill="#655458" d="M38 7h1v1h-1zM32 17h1v1h-1zM35 18h1v1h-1zM33 20h1v1h-1zM32 23h2v1h-2zM25 27h1v1h-1zM50 27h1v1h-1zM54 29h1v1h-1zM46 30h1v1h-1zM53 30h1v1h-1zM38 32h1v1h-1zM35 33h1v1h-1zM43 33h1v1h-1zM44 34h1v1h-1zM45 35h1v1h-1zM17 43h1v1h-1zM12 44h1v1h-1zM12 45h1v1h-1zM36 45h1v1h-1zM16 46h1v1h-1zM37 47h1v1h-1zM14 49h1v1h-1zM38 49h1v1h-1zM39 52h1v1h-1zM51 52h1v1h-1zM40 54h1v1h-1zM42 54h1v1h-1zM49 54h1v1h-1zM20 57h1v1h-1zM21 58h1v1h-1zM41 58h1v1h-1zM22 59h2v1h-2zM24 60h2v1h-2zM26 61h1v1h-1zM30 61h3v1h-3z"/>
    <path fill="#6f4247" d="M32 9h1v1h-1zM32 11h1v1h-1zM36 13h1v1h-1zM24 14h1v1h-1zM39 14h1v1h-1zM38 15h1v1h-1zM51 17h1v1h-1zM23 19h1v1h-1zM28 19h1v1h-1zM46 21h1v1h-1zM48 21h1v1h-1zM17 23h1v1h-1zM51 24h1v1h-1zM51 25h1v1h-1zM48 28h2v1h-2zM55 28h1v1h-1zM49 29h1v1h-1zM48 30h1v1h-1zM52 30h1v1h-1zM47 31h1v1h-1zM49 31h1v1h-1zM30 34h1v1h-1zM57 34h1v1h-1zM55 43h1v1h-1zM55 44h1v1h-1zM55 45h1v1h-1zM55 46h1v1h-1zM49 47h1v1h-1zM28 48h1v1h-1z"/>
    <path fill="#6f6665" d="M24 6h2v1h-2zM23 7h1v1h-1zM23 8h1v1h-1zM23 9h1v1h-1zM33 18h1v1h-1zM50 25h1v1h-1zM27 27h1v1h-1zM22 28h1v1h-1zM22 29h1v1h-1zM33 29h2v1h-2zM25 36h1v1h-1zM32 44h1v1h-1zM38 48h1v1h-1zM33 49h1v1h-1zM14 50h1v1h-1zM18 50h1v1h-1zM34 50h1v1h-1zM37 50h1v1h-1zM14 51h1v1h-1zM18 51h1v1h-1zM33 51h1v1h-1zM14 52h1v1h-1zM19 52h1v1h-1zM32 52h1v1h-1zM15 53h1v1h-1zM50 53h1v1h-1zM15 54h1v1h-1zM22 54h1v1h-1zM27 54h3v1h-3zM48 54h1v1h-1zM16 55h1v1h-1zM40 57h1v1h-1zM23 58h1v1h-1zM25 59h2v1h-2zM30 60h1v1h-1zM32 60h2v1h-2zM27 61h1v1h-1z"/>
    <path fill="#70484d" d="M32 8h1v1h-1zM33 12h1v1h-1zM26 13h1v1h-1zM32 13h1v1h-1zM40 13h1v1h-1zM26 14h1v1h-1zM25 15h2v1h-2zM37 15h1v1h-1zM46 15h1v1h-1zM25 16h1v1h-1zM28 16h1v1h-1zM46 16h1v1h-1zM19 17h1v1h-1zM24 17h1v1h-1zM35 17h2v1h-2zM41 17h1v1h-1zM45 17h1v1h-1zM29 18h1v1h-1zM47 19h2v1h-2zM18 20h1v1h-1zM18 21h1v1h-1zM39 21h1v1h-1zM41 21h1v1h-1zM18 23h1v1h-1zM18 24h1v1h-1zM18 25h1v1h-1zM46 26h1v1h-1zM47 27h1v1h-1zM29 34h1v1h-1z"/>
    <path fill="#715154" d="M24 12h1v1h-1zM31 12h1v1h-1zM40 12h1v1h-1zM31 14h1v1h-1zM27 15h1v1h-1zM36 16h1v1h-1zM40 17h1v1h-1zM47 17h1v1h-1zM18 18h1v1h-1zM48 18h2v1h-2zM18 19h1v1h-1zM32 19h1v1h-1zM29 20h1v1h-1zM35 20h1v1h-1zM29 21h1v1h-1zM18 22h1v1h-1zM50 23h1v1h-1zM33 24h1v1h-1zM24 32h1v1h-1zM29 35h1v1h-1z"/>
    <path fill="#715d5e" d="M40 8h1v1h-1zM30 10h1v1h-1zM28 12h1v1h-1zM35 12h2v1h-2zM28 15h1v1h-1zM30 15h1v1h-1zM56 17h1v1h-1zM57 18h1v1h-1zM35 19h1v1h-1zM44 23h1v1h-1zM53 24h1v1h-1zM43 26h1v1h-1zM52 26h1v1h-1zM32 29h1v1h-1zM46 29h1v1h-1zM32 30h1v1h-1zM34 30h2v1h-2zM34 31h1v1h-1zM36 31h1v1h-1zM45 31h1v1h-1zM55 31h1v1h-1zM35 32h1v1h-1zM44 32h1v1h-1zM51 32h1v1h-1zM47 33h1v1h-1zM47 34h1v1h-1zM21 35h1v1h-1zM30 36h1v1h-1zM34 41h1v1h-1zM26 43h1v1h-1zM23 44h1v1h-1zM29 44h1v1h-1zM35 44h1v1h-1zM35 45h1v1h-1zM35 46h1v1h-1zM35 47h1v1h-1zM35 48h1v1h-1zM34 49h1v1h-1zM39 50h1v1h-1zM39 51h1v1h-1zM38 53h1v1h-1zM17 55h1v1h-1zM40 58h1v1h-1zM31 60h1v1h-1z"/>
    <path fill="#746c6a" d="M34 7h1v1h-1zM54 17h1v1h-1zM27 26h1v1h-1zM42 29h1v1h-1zM36 32h2v1h-2zM34 35h2v1h-2zM20 37h1v1h-1zM30 37h1v1h-1zM34 37h1v1h-1zM17 38h1v1h-1zM16 39h1v1h-1zM15 41h1v1h-1zM51 41h1v1h-1zM33 43h1v1h-1zM15 44h1v1h-1zM16 47h1v1h-1zM13 48h1v1h-1zM17 49h1v1h-1zM36 49h1v1h-1zM37 51h1v1h-1zM20 53h1v1h-1zM31 53h1v1h-1zM30 54h1v1h-1zM24 58h1v1h-1zM37 59h2v1h-2zM34 60h2v1h-2z"/>
    <path fill="#777c77" d="M34 10h1v1h-1zM14 31h1v1h-1zM13 33h1v1h-1zM34 34h1v1h-1zM52 37h1v1h-1zM31 38h1v1h-1zM13 39h1v1h-1zM14 40h2v1h-2zM13 41h1v1h-1zM19 43h2v1h-2zM18 45h1v1h-1zM13 46h1v1h-1zM18 46h1v1h-1zM13 47h1v1h-1zM34 47h1v1h-1zM32 48h1v1h-1zM32 49h1v1h-1zM31 50h1v1h-1zM25 51h6v1h-6zM49 51h1v1h-1z"/>
    <path fill="#786566" d="M41 10h1v1h-1zM27 12h1v1h-1zM27 13h1v1h-1zM31 13h1v1h-1zM47 14h1v1h-1zM49 14h1v1h-1zM50 15h1v1h-1zM24 19h1v1h-1zM34 20h1v1h-1zM26 21h1v1h-1zM26 22h1v1h-1zM36 22h1v1h-1zM34 23h1v1h-1zM50 24h1v1h-1zM48 26h1v1h-1zM50 26h1v1h-1zM32 27h1v1h-1zM43 28h1v1h-1zM35 29h1v1h-1zM21 31h1v1h-1zM33 31h1v1h-1zM34 32h1v1h-1zM25 33h1v1h-1zM21 34h1v1h-1zM49 34h1v1h-1zM32 35h1v1h-1zM21 37h1v1h-1zM33 41h1v1h-1zM22 43h1v1h-1zM36 44h1v1h-1zM25 46h2v1h-2zM29 46h1v1h-1zM37 46h1v1h-1z"/>
    <path fill="#78726e" d="M26 6h1v1h-1zM23 10h1v1h-1zM57 21h1v1h-1zM27 23h1v1h-1zM54 23h1v1h-1zM27 24h1v1h-1zM26 26h1v1h-1zM35 31h1v1h-1zM25 38h1v1h-1zM32 38h1v1h-1zM52 38h1v1h-1zM13 40h1v1h-1zM35 42h1v1h-1zM51 42h1v1h-1zM35 49h1v1h-1zM39 49h1v1h-1zM33 50h1v1h-1zM35 50h1v1h-1zM50 50h1v1h-1zM32 51h1v1h-1zM45 51h1v1h-1zM31 52h1v1h-1zM44 52h1v1h-1zM48 52h1v1h-1zM38 54h1v1h-1zM19 56h1v1h-1zM39 56h1v1h-1zM21 57h3v1h-3zM25 58h2v1h-2zM27 59h1v1h-1zM31 59h2v1h-2zM27 60h1v1h-1zM29 60h1v1h-1z"/>
    <path fill="#7e4c4d" d="M41 8h1v1h-1zM42 9h1v1h-1zM31 10h1v1h-1zM42 10h1v1h-1zM41 11h1v1h-1zM42 12h1v1h-1zM47 12h1v1h-1zM25 13h1v1h-1zM37 13h1v1h-1zM39 13h1v1h-1zM25 14h1v1h-1zM37 14h1v1h-1zM46 14h1v1h-1zM40 16h1v1h-1zM50 18h2v1h-2zM49 19h1v1h-1zM36 20h1v1h-1zM47 20h1v1h-1zM37 21h1v1h-1zM49 21h1v1h-1zM50 22h1v1h-1zM51 23h1v1h-1zM18 26h1v1h-1zM17 27h1v1h-1zM55 29h1v1h-1zM55 30h1v1h-1zM51 31h1v1h-1zM47 32h1v1h-1zM57 32h1v1h-1zM31 34h1v1h-1zM46 35h1v1h-1zM56 43h1v1h-1zM56 44h1v1h-1zM56 45h1v1h-1zM22 46h1v1h-1zM56 46h1v1h-1zM56 47h1v1h-1z"/>
    <path fill="#7f5a59" d="M41 9h1v1h-1zM37 12h1v1h-1zM36 14h1v1h-1zM33 17h1v1h-1zM21 18h1v1h-1zM41 18h1v1h-1zM46 18h1v1h-1zM21 19h1v1h-1zM26 19h1v1h-1zM41 20h1v1h-1zM30 22h1v1h-1zM48 22h1v1h-1zM56 23h1v1h-1zM46 25h1v1h-1zM47 26h1v1h-1zM52 31h1v1h-1zM56 31h1v1h-1zM48 32h1v1h-1zM23 33h1v1h-1zM57 33h1v1h-1zM21 44h1v1h-1zM51 44h1v1h-1zM50 45h1v1h-1zM49 46h1v1h-1zM25 47h1v1h-1zM28 47h1v1h-1zM48 48h1v1h-1zM47 49h1v1h-1z"/>
    <path fill="#816b6c" d="M33 8h1v1h-1zM29 11h1v1h-1zM29 12h1v1h-1zM50 16h1v1h-1zM30 18h1v1h-1zM29 19h1v1h-1zM24 20h1v1h-1zM32 20h1v1h-1zM35 21h1v1h-1zM35 22h1v1h-1zM37 22h1v1h-1zM35 23h1v1h-1zM49 23h1v1h-1zM28 24h1v1h-1zM34 25h1v1h-1zM45 26h1v1h-1zM30 27h1v1h-1zM43 27h1v1h-1zM26 28h1v1h-1zM23 30h1v1h-1zM21 32h1v1h-1zM21 33h1v1h-1zM50 34h1v1h-1zM22 35h1v1h-1zM23 36h1v1h-1zM31 36h1v1h-1zM46 36h1v1h-1zM31 40h1v1h-1zM27 46h1v1h-1zM30 46h1v1h-1zM40 53h1v1h-1zM41 54h1v1h-1z"/>
    <path fill="#817574" d="M40 11h1v1h-1zM30 14h1v1h-1zM25 19h1v1h-1zM26 20h1v1h-1zM45 27h1v1h-1zM21 30h1v1h-1zM36 30h1v1h-1zM32 31h1v1h-1zM24 36h1v1h-1zM20 39h1v1h-1zM30 40h1v1h-1zM32 40h1v1h-1zM32 41h1v1h-1zM34 42h1v1h-1zM35 43h1v1h-1zM17 48h1v1h-1zM46 50h1v1h-1zM39 58h1v1h-1zM30 59h1v1h-1zM28 60h1v1h-1z"/>
    <path fill="#837d74" d="M34 6h4v1h-4zM38 11h1v1h-1zM30 12h1v1h-1zM28 13h1v1h-1zM53 17h1v1h-1zM34 18h1v1h-1zM33 19h1v1h-1zM32 22h1v1h-1zM35 24h1v1h-1zM28 26h1v1h-1zM33 28h1v1h-1zM25 29h1v1h-1zM37 31h1v1h-1zM39 32h1v1h-1zM43 32h1v1h-1zM26 33h1v1h-1zM42 33h1v1h-1zM25 34h1v1h-1zM43 34h1v1h-1zM25 35h1v1h-1zM44 35h1v1h-1zM45 36h1v1h-1zM25 37h2v1h-2zM29 38h1v1h-1zM18 43h1v1h-1zM32 43h1v1h-1zM46 44h2v1h-2zM44 45h4v1h-4zM49 45h1v1h-1zM45 46h2v1h-2zM31 47h1v1h-1zM38 47h1v1h-1zM16 48h1v1h-1zM47 48h1v1h-1zM17 50h1v1h-1zM36 50h1v1h-1zM34 51h1v1h-1zM36 51h1v1h-1zM44 51h1v1h-1zM33 52h1v1h-1zM37 52h1v1h-1zM32 53h1v1h-1zM43 53h1v1h-1zM28 55h2v1h-2zM38 55h1v1h-1zM24 57h3v1h-3zM28 59h1v1h-1zM36 59h1v1h-1z"/>
    <path fill="#897c7b" d="M27 14h1v1h-1zM25 21h1v1h-1zM56 22h1v1h-1zM24 23h1v1h-1zM48 23h1v1h-1zM24 24h1v1h-1zM32 24h1v1h-1zM45 25h1v1h-1zM29 26h1v1h-1zM24 27h1v1h-1zM31 28h1v1h-1zM25 32h1v1h-1zM29 33h1v1h-1zM34 33h1v1h-1zM23 35h1v1h-1zM27 37h1v1h-1zM32 37h1v1h-1zM21 38h1v1h-1zM30 38h1v1h-1zM33 38h1v1h-1zM33 40h1v1h-1zM17 44h1v1h-1zM24 45h1v1h-1zM48 46h1v1h-1zM45 47h1v1h-1z"/>
    <path fill="#89867e" d="M39 10h1v1h-1zM55 22h1v1h-1zM26 23h1v1h-1zM20 24h1v1h-1zM49 26h1v1h-1zM20 27h1v1h-1zM28 27h1v1h-1zM36 27h1v1h-1zM34 28h1v1h-1zM45 30h1v1h-1zM39 33h2v1h-2zM51 35h1v1h-1zM46 43h1v1h-1zM45 44h1v1h-1zM44 46h1v1h-1zM18 47h1v1h-1zM44 47h1v1h-1zM46 47h1v1h-1zM14 48h1v1h-1zM30 49h1v1h-1zM46 49h1v1h-1zM24 51h1v1h-1zM35 51h1v1h-1zM40 52h1v1h-1zM27 55h1v1h-1zM33 59h1v1h-1z"/>
    <path fill="#8b5553" d="M28 7h1v1h-1zM42 8h1v1h-1zM31 9h1v1h-1zM42 11h1v1h-1zM47 11h1v1h-1zM23 12h1v1h-1zM25 12h1v1h-1zM38 12h1v1h-1zM43 12h1v1h-1zM33 13h1v1h-1zM38 13h1v1h-1zM43 13h2v1h-2zM46 13h1v1h-1zM38 14h1v1h-1zM44 14h2v1h-2zM24 15h1v1h-1zM36 15h1v1h-1zM28 17h1v1h-1zM34 17h1v1h-1zM37 17h1v1h-1zM52 17h1v1h-1zM22 18h2v1h-2zM28 18h1v1h-1zM36 18h1v1h-1zM27 19h1v1h-1zM50 19h1v1h-1zM46 20h1v1h-1zM48 20h2v1h-2zM19 21h1v1h-1zM38 21h1v1h-1zM44 22h1v1h-1zM16 24h1v1h-1zM52 24h1v1h-1zM52 25h1v1h-1zM16 26h1v1h-1zM48 31h1v1h-1zM47 35h1v1h-1zM23 41h1v1h-1zM30 48h1v1h-1z"/>
    <path fill="#8b8080" d="M32 21h1v1h-1zM38 24h2v1h-2zM37 25h1v1h-1zM47 25h1v1h-1zM37 26h1v1h-1zM21 28h1v1h-1zM15 30h1v1h-1zM24 30h1v1h-1zM13 34h1v1h-1zM13 37h1v1h-1zM18 37h2v1h-2zM22 37h1v1h-1zM31 37h1v1h-1zM13 38h1v1h-1zM20 38h1v1h-1zM14 39h2v1h-2zM31 39h1v1h-1zM29 40h1v1h-1zM14 41h1v1h-1zM13 42h1v1h-1zM34 44h1v1h-1zM15 45h1v1h-1zM15 46h1v1h-1zM51 50h1v1h-1zM51 51h1v1h-1zM49 53h1v1h-1z"/>
    <path fill="#8f9285" d="M54 22h1v1h-1zM51 39h1v1h-1zM18 44h2v1h-2zM34 45h1v1h-1zM19 47h1v1h-1zM19 48h1v1h-1zM31 49h1v1h-1zM30 50h1v1h-1zM32 50h1v1h-1zM31 51h1v1h-1z"/>
    <path fill="#918c85" d="M35 11h1v1h-1zM22 22h1v1h-1zM40 24h2v1h-2zM38 25h1v1h-1zM37 28h1v1h-1zM21 29h1v1h-1zM14 32h1v1h-1zM13 35h1v1h-1zM13 36h1v1h-1zM20 36h1v1h-1zM28 36h1v1h-1zM33 36h1v1h-1zM27 40h2v1h-2zM14 42h1v1h-1zM33 42h1v1h-1zM13 43h1v1h-1zM34 43h1v1h-1zM13 45h1v1h-1zM15 47h1v1h-1zM50 52h1v1h-1zM48 53h1v1h-1z"/>
    <path fill="#926a65" d="M30 8h2v1h-2zM30 9h1v1h-1zM23 11h1v1h-1zM26 12h1v1h-1zM39 12h1v1h-1zM24 16h1v1h-1zM43 17h1v1h-1zM43 18h1v1h-1zM52 18h1v1h-1zM42 19h1v1h-1zM46 19h1v1h-1zM40 20h1v1h-1zM42 21h1v1h-1zM43 22h1v1h-1zM46 22h1v1h-1zM51 22h1v1h-1zM57 22h1v1h-1zM28 23h1v1h-1zM45 23h1v1h-1zM52 23h1v1h-1zM48 35h1v1h-1zM47 36h1v1h-1zM22 39h1v1h-1zM26 42h1v1h-1zM51 43h1v1h-1zM48 47h1v1h-1z"/>
    <path fill="#928881" d="M27 7h1v1h-1zM37 7h1v1h-1zM39 8h1v1h-1zM33 9h1v1h-1zM40 9h1v1h-1zM38 10h1v1h-1zM37 11h1v1h-1zM48 14h1v1h-1zM29 15h1v1h-1zM47 15h1v1h-1zM47 16h1v1h-1zM49 17h1v1h-1zM25 20h1v1h-1zM20 23h1v1h-1zM36 23h1v1h-1zM26 24h1v1h-1zM48 24h1v1h-1zM27 25h1v1h-1zM19 26h1v1h-1zM36 26h1v1h-1zM29 27h1v1h-1zM43 29h1v1h-1zM44 31h1v1h-1zM36 33h1v1h-1zM38 33h1v1h-1zM27 34h1v1h-1zM26 36h1v1h-1zM24 38h1v1h-1zM32 42h1v1h-1zM36 43h1v1h-1zM45 43h1v1h-1zM47 43h1v1h-1zM48 44h1v1h-1zM50 44h1v1h-1zM37 45h1v1h-1zM43 45h1v1h-1zM48 45h1v1h-1zM47 46h1v1h-1zM47 47h1v1h-1zM18 49h1v1h-1zM43 51h1v1h-1zM28 52h2v1h-2zM43 52h1v1h-1zM42 53h1v1h-1zM31 54h1v1h-1zM28 56h1v1h-1zM39 57h1v1h-1zM27 58h1v1h-1z"/>
    <path fill="#999185" d="M38 8h1v1h-1zM39 11h1v1h-1zM29 13h1v1h-1zM48 17h1v1h-1zM53 18h1v1h-1zM56 18h1v1h-1zM23 21h1v1h-1zM56 21h1v1h-1zM42 22h1v1h-1zM29 24h1v1h-1zM21 25h1v1h-1zM21 27h1v1h-1zM42 32h1v1h-1zM27 33h1v1h-1zM41 33h1v1h-1zM26 34h1v1h-1zM28 34h1v1h-1zM27 36h1v1h-1zM23 37h1v1h-1zM46 37h1v1h-1zM30 39h1v1h-1zM35 41h1v1h-1zM46 42h1v1h-1zM44 44h1v1h-1zM49 44h1v1h-1zM17 47h1v1h-1zM39 48h1v1h-1zM44 48h3v1h-3zM44 50h2v1h-2zM15 52h1v1h-1zM18 52h1v1h-1zM27 52h1v1h-1zM30 52h1v1h-1zM36 52h1v1h-1zM19 53h1v1h-1zM37 53h1v1h-1zM16 54h1v1h-1zM21 54h1v1h-1zM25 55h2v1h-2zM30 55h1v1h-1zM24 56h4v1h-4zM29 56h1v1h-1zM27 57h1v1h-1zM32 58h2v1h-2zM34 59h2v1h-2z"/>
    <path fill="#9b8781" d="M24 11h2v1h-2zM24 21h1v1h-1zM27 21h1v1h-1zM30 21h1v1h-1zM24 22h1v1h-1zM27 22h1v1h-1zM52 22h1v1h-1zM45 24h1v1h-1zM47 24h1v1h-1zM23 25h1v1h-1zM42 25h1v1h-1zM30 26h2v1h-2zM42 26h1v1h-1zM44 27h1v1h-1zM22 31h1v1h-1zM30 33h1v1h-1zM23 34h1v1h-1zM21 39h1v1h-1zM30 41h2v1h-2zM27 44h1v1h-1zM30 44h1v1h-1zM22 45h2v1h-2zM21 46h1v1h-1zM22 47h1v1h-1zM26 47h1v1h-1zM29 47h1v1h-1zM23 48h1v1h-1z"/>
    <path fill="#9c968a" d="M35 7h1v1h-1zM28 10h1v1h-1zM30 13h1v1h-1zM56 20h1v1h-1zM52 21h1v1h-1zM21 22h1v1h-1zM25 22h1v1h-1zM38 29h1v1h-1zM40 32h2v1h-2zM45 37h1v1h-1zM14 38h1v1h-1zM49 39h1v1h-1zM50 40h1v1h-1zM21 41h1v1h-1zM46 41h1v1h-1zM17 45h1v1h-1zM41 45h2v1h-2zM17 46h1v1h-1zM38 46h1v1h-1zM43 46h1v1h-1zM31 48h1v1h-1zM16 49h1v1h-1zM45 49h1v1h-1zM40 51h1v1h-1zM50 51h1v1h-1zM34 52h1v1h-1zM49 52h1v1h-1zM33 53h1v1h-1zM24 55h1v1h-1zM30 56h1v1h-1zM32 57h2v1h-2zM38 58h1v1h-1zM29 59h1v1h-1z"/>
    <path fill="#9d5554" d="M43 8h3v1h-3zM45 9h2v1h-2zM45 10h2v1h-2zM45 11h2v1h-2zM44 12h3v1h-3zM41 13h1v1h-1zM40 14h1v1h-1zM45 15h1v1h-1zM45 16h1v1h-1zM42 17h1v1h-1zM44 17h1v1h-1zM36 19h1v1h-1zM29 23h1v1h-1zM17 24h1v1h-1zM16 25h2v1h-2zM17 26h1v1h-1zM23 40h1v1h-1zM29 42h1v1h-1zM21 45h1v1h-1z"/>
    <path fill="#9f9a8d" d="M39 9h1v1h-1zM24 10h1v1h-1zM49 15h1v1h-1zM56 19h1v1h-1zM40 23h1v1h-1zM49 24h1v1h-1zM26 25h1v1h-1zM48 25h1v1h-1zM34 26h1v1h-1zM37 27h1v1h-1zM37 33h1v1h-1zM51 36h1v1h-1zM16 38h1v1h-1zM28 38h1v1h-1zM14 43h1v1h-1zM34 46h1v1h-1zM42 46h1v1h-1zM43 47h1v1h-1zM19 50h1v1h-1zM17 51h1v1h-1zM26 52h1v1h-1zM18 55h1v1h-1zM38 56h1v1h-1z"/>
    <path fill="#a39088" d="M23 20h1v1h-1zM31 21h1v1h-1zM51 21h1v1h-1zM38 22h1v1h-1zM41 22h1v1h-1zM53 23h1v1h-1zM22 25h1v1h-1zM33 25h1v1h-1zM44 26h1v1h-1zM17 28h1v1h-1zM31 33h1v1h-1zM22 38h2v1h-2zM24 39h1v1h-1zM26 40h1v1h-1zM29 41h1v1h-1zM24 43h1v1h-1z"/>
    <path fill="#a3a991" d="M28 14h2v1h-2zM34 19h1v1h-1zM49 25h1v1h-1zM20 44h1v1h-1zM19 45h1v1h-1zM19 46h1v1h-1zM20 48h1v1h-1zM20 49h1v1h-1zM27 49h1v1h-1zM22 50h3v1h-3zM26 50h1v1h-1z"/>
    <path fill="#a49e8d" d="M36 7h1v1h-1zM26 9h1v1h-1zM27 10h1v1h-1zM37 10h1v1h-1zM40 10h1v1h-1zM31 19h1v1h-1zM53 20h1v1h-1zM20 21h1v1h-1zM33 21h1v1h-1zM53 21h1v1h-1zM19 22h1v1h-1zM40 22h1v1h-1zM30 24h1v1h-1zM43 25h1v1h-1zM23 27h1v1h-1zM33 27h2v1h-2zM35 28h2v1h-2zM24 31h1v1h-1zM31 31h1v1h-1zM38 31h1v1h-1zM28 33h1v1h-1zM22 34h1v1h-1zM32 36h1v1h-1zM46 38h1v1h-1zM29 39h1v1h-1zM34 40h1v1h-1zM46 40h1v1h-1zM49 40h1v1h-1zM50 41h1v1h-1zM45 42h1v1h-1zM47 42h1v1h-1zM48 43h1v1h-1zM50 43h1v1h-1zM37 44h1v1h-1zM40 45h1v1h-1zM41 46h1v1h-1zM18 48h1v1h-1zM15 49h1v1h-1zM40 49h1v1h-1zM44 49h1v1h-1zM15 50h2v1h-2zM40 50h1v1h-1zM20 51h1v1h-1zM22 52h1v1h-1zM24 52h2v1h-2zM35 52h1v1h-1zM42 52h1v1h-1zM41 53h1v1h-1zM20 54h1v1h-1zM32 54h1v1h-1zM37 54h1v1h-1zM22 55h2v1h-2zM31 55h1v1h-1zM20 56h1v1h-1zM23 56h1v1h-1zM28 57h1v1h-1z"/>
    <path fill="#a8a396" d="M27 9h1v1h-1zM28 11h1v1h-1zM30 19h1v1h-1zM21 21h2v1h-2zM23 22h1v1h-1zM21 23h1v1h-1zM39 23h1v1h-1zM43 23h1v1h-1zM20 25h1v1h-1zM21 26h1v1h-1zM25 26h1v1h-1zM22 27h1v1h-1zM18 28h3v1h-3zM45 28h1v1h-1zM16 29h1v1h-1zM39 29h1v1h-1zM41 29h1v1h-1zM36 34h1v1h-1zM33 35h1v1h-1zM35 36h1v1h-1zM14 37h1v1h-1zM17 37h1v1h-1zM47 37h1v1h-1zM15 38h1v1h-1zM25 39h1v1h-1zM28 39h1v1h-1zM32 39h1v1h-1zM48 39h1v1h-1zM13 44h1v1h-1zM14 46h1v1h-1zM14 47h1v1h-1zM39 47h1v1h-1zM15 48h1v1h-1zM15 51h1v1h-1zM23 51h1v1h-1zM18 53h1v1h-1zM22 56h1v1h-1zM31 56h1v1h-1zM31 57h1v1h-1zM34 58h1v1h-1zM36 58h2v1h-2z"/>
    <path fill="#aa6f65" d="M29 8h1v1h-1zM44 9h1v1h-1zM43 11h2v1h-2zM34 13h2v1h-2zM42 13h1v1h-1zM45 13h1v1h-1zM32 14h1v1h-1zM32 15h1v1h-1zM40 15h1v1h-1zM26 16h2v1h-2zM32 16h1v1h-1zM35 16h1v1h-1zM22 17h2v1h-2zM38 17h1v1h-1zM19 18h1v1h-1zM41 19h1v1h-1zM51 19h1v1h-1zM19 20h2v1h-2zM50 20h1v1h-1zM45 21h1v1h-1zM50 21h1v1h-1zM29 22h1v1h-1zM24 41h1v1h-1zM27 42h1v1h-1zM30 42h1v1h-1zM29 43h1v1h-1zM24 48h4v1h-4z"/>
    <path fill="#aea798" d="M26 7h1v1h-1zM28 9h1v1h-1zM25 10h2v1h-2zM35 10h1v1h-1zM54 18h1v1h-1zM53 19h1v1h-1zM54 20h1v1h-1zM34 21h1v1h-1zM54 21h1v1h-1zM20 22h1v1h-1zM33 22h1v1h-1zM31 24h1v1h-1zM32 26h1v1h-1zM42 28h1v1h-1zM40 29h1v1h-1zM14 33h1v1h-1zM22 33h1v1h-1zM14 34h1v1h-1zM14 35h1v1h-1zM14 36h1v1h-1zM44 36h1v1h-1zM26 39h1v1h-1zM46 39h1v1h-1zM50 39h1v1h-1zM48 40h1v1h-1zM47 41h1v1h-1zM49 41h1v1h-1zM49 43h1v1h-1zM14 44h1v1h-1zM43 44h1v1h-1zM14 45h1v1h-1zM39 45h1v1h-1zM40 46h1v1h-1zM42 47h1v1h-1zM43 48h1v1h-1zM43 50h1v1h-1zM17 52h1v1h-1zM41 52h1v1h-1zM17 54h1v1h-1zM34 57h1v1h-1z"/>
    <path fill="#b1ab98" d="M24 7h1v1h-1zM27 8h2v1h-2zM29 10h1v1h-1zM27 11h1v1h-1zM52 20h1v1h-1zM55 21h1v1h-1zM53 22h1v1h-1zM44 24h1v1h-1zM19 25h1v1h-1zM28 25h1v1h-1zM35 25h1v1h-1zM36 29h1v1h-1zM45 29h1v1h-1zM44 30h1v1h-1zM28 35h1v1h-1zM45 38h1v1h-1zM47 40h1v1h-1zM45 41h1v1h-1zM36 42h1v1h-1zM48 42h1v1h-1zM50 42h1v1h-1zM25 43h1v1h-1zM38 45h1v1h-1zM40 48h1v1h-1zM21 50h1v1h-1zM42 51h1v1h-1zM34 53h1v1h-1zM19 54h1v1h-1zM33 54h1v1h-1zM21 55h1v1h-1zM32 55h1v1h-1zM37 55h1v1h-1zM32 56h2v1h-2zM28 58h1v1h-1zM35 58h1v1h-1z"/>
    <path fill="#b4ac9a" d="M36 11h1v1h-1zM22 20h1v1h-1zM39 22h1v1h-1zM24 25h1v1h-1zM22 26h1v1h-1zM38 28h1v1h-1zM44 28h1v1h-1zM15 31h1v1h-1zM33 34h1v1h-1zM43 35h1v1h-1zM25 40h1v1h-1zM28 44h1v1h-1zM39 46h1v1h-1zM19 49h1v1h-1zM41 51h1v1h-1zM23 52h1v1h-1z"/>
    <path fill="#b7b29c" d="M26 8h1v1h-1zM34 8h1v1h-1zM37 8h1v1h-1zM24 9h1v1h-1zM38 9h1v1h-1zM48 15h1v1h-1zM48 16h2v1h-2zM32 25h1v1h-1zM27 28h1v1h-1zM39 30h4v1h-4zM26 32h1v1h-1zM31 32h1v1h-1zM26 35h2v1h-2zM36 35h1v1h-1zM47 39h1v1h-1zM45 40h1v1h-1zM48 41h1v1h-1zM49 42h1v1h-1zM44 43h1v1h-1zM22 44h1v1h-1zM31 44h1v1h-1zM20 45h1v1h-1zM40 47h2v1h-2zM41 48h2v1h-2zM21 49h1v1h-1zM41 49h3v1h-3zM25 50h1v1h-1zM41 50h2v1h-2zM16 53h1v1h-1zM35 53h2v1h-2zM34 54h1v1h-1zM19 55h1v1h-1zM33 55h2v1h-2zM21 56h1v1h-1zM34 56h1v1h-1zM30 57h1v1h-1zM35 57h1v1h-1zM38 57h1v1h-1zM31 58h1v1h-1z"/>
    <path fill="#b89d91" d="M29 9h1v1h-1zM26 11h1v1h-1zM26 17h1v1h-1zM52 19h1v1h-1zM21 20h1v1h-1zM51 20h1v1h-1zM47 23h1v1h-1zM46 24h1v1h-1zM32 33h1v1h-1zM49 35h1v1h-1zM48 36h1v1h-1zM23 39h1v1h-1zM22 41h1v1h-1zM26 41h3v1h-3zM24 47h1v1h-1zM27 47h1v1h-1zM30 47h1v1h-1z"/>
    <path fill="#bab49f" d="M24 8h1v1h-1zM25 9h1v1h-1zM55 18h1v1h-1zM38 23h1v1h-1zM41 23h1v1h-1zM19 24h1v1h-1zM37 24h1v1h-1zM42 24h1v1h-1zM36 25h1v1h-1zM23 26h1v1h-1zM35 27h1v1h-1zM31 30h1v1h-1zM43 31h1v1h-1zM23 32h1v1h-1zM30 32h1v1h-1zM39 34h1v1h-1zM42 34h1v1h-1zM24 37h1v1h-1zM51 37h1v1h-1zM26 38h1v1h-1zM34 38h1v1h-1zM47 38h1v1h-1zM51 38h1v1h-1zM27 39h1v1h-1zM45 39h1v1h-1zM37 43h1v1h-1zM42 44h1v1h-1zM16 51h1v1h-1zM17 53h1v1h-1zM18 54h1v1h-1zM35 54h2v1h-2zM20 55h1v1h-1zM30 58h1v1h-1z"/>
    <path fill="#bc877c" d="M43 9h1v1h-1zM43 10h2v1h-2zM41 14h1v1h-1zM43 14h1v1h-1zM22 15h2v1h-2zM44 15h1v1h-1zM41 16h1v1h-1zM44 16h1v1h-1zM39 17h1v1h-1zM20 18h1v1h-1zM26 18h2v1h-2zM40 18h1v1h-1zM44 18h2v1h-2zM19 19h1v1h-1zM40 19h1v1h-1zM37 20h1v1h-1zM39 20h1v1h-1zM42 20h1v1h-1zM28 21h1v1h-1zM43 21h1v1h-1zM47 22h1v1h-1zM24 40h1v1h-1zM25 41h1v1h-1zM28 42h1v1h-1zM31 42h1v1h-1zM23 47h1v1h-1z"/>
    <path fill="#bfbdab" d="M25 7h1v1h-1zM30 20h1v1h-1zM34 22h1v1h-1zM25 23h1v1h-1zM37 23h1v1h-1zM21 24h1v1h-1zM36 24h1v1h-1zM39 25h1v1h-1zM41 25h1v1h-1zM20 26h1v1h-1zM38 26h1v1h-1zM42 27h1v1h-1zM31 29h1v1h-1zM37 29h1v1h-1zM25 31h1v1h-1zM30 31h1v1h-1zM22 32h1v1h-1zM32 32h1v1h-1zM15 34h1v1h-1zM38 34h1v1h-1zM15 35h1v1h-1zM50 35h1v1h-1zM15 36h2v1h-2zM19 36h1v1h-1zM15 37h2v1h-2zM35 37h1v1h-1zM33 39h1v1h-1zM38 44h1v1h-1zM41 44h1v1h-1zM16 52h1v1h-1zM35 56h1v1h-1zM37 56h1v1h-1zM29 57h1v1h-1zM36 57h1v1h-1zM29 58h1v1h-1z"/>
    <path fill="#c3c6a9" d="M37 9h1v1h-1zM36 10h1v1h-1zM54 19h1v1h-1zM55 20h1v1h-1zM44 25h1v1h-1zM33 26h1v1h-1zM35 26h1v1h-1zM30 28h1v1h-1zM26 29h1v1h-1zM44 29h1v1h-1zM25 30h1v1h-1zM37 30h2v1h-2zM43 30h1v1h-1zM29 32h1v1h-1zM37 34h1v1h-1zM40 34h1v1h-1zM48 37h1v1h-1zM48 38h2v1h-2zM21 40h2v1h-2zM35 40h1v1h-1zM24 42h1v1h-1zM27 43h1v1h-1zM39 44h1v1h-1zM20 46h1v1h-1zM23 46h1v1h-1zM20 47h2v1h-2zM22 48h1v1h-1zM22 49h2v1h-2zM20 50h1v1h-1zM21 51h2v1h-2zM35 55h1v1h-1zM37 57h1v1h-1z"/>
    <path fill="#d0b19c" d="M33 14h1v1h-1zM35 14h1v1h-1zM42 14h1v1h-1zM35 15h1v1h-1zM41 15h1v1h-1zM43 15h1v1h-1zM22 16h2v1h-2zM33 16h2v1h-2zM42 16h2v1h-2zM27 17h1v1h-1zM37 18h1v1h-1zM39 18h1v1h-1zM20 19h1v1h-1zM39 19h1v1h-1zM43 19h1v1h-1zM45 19h1v1h-1zM38 20h1v1h-1zM45 20h1v1h-1zM44 21h1v1h-1zM28 22h1v1h-1zM46 23h1v1h-1zM30 43h1v1h-1z"/>
    <path fill="#d2c8b5" d="M35 8h1v1h-1zM34 9h1v1h-1zM19 23h1v1h-1zM22 23h1v1h-1zM42 23h1v1h-1zM25 24h1v1h-1zM43 24h1v1h-1zM25 25h1v1h-1zM29 25h1v1h-1zM40 25h1v1h-1zM38 27h1v1h-1zM23 31h1v1h-1zM39 31h1v1h-1zM15 32h1v1h-1zM27 32h1v1h-1zM33 32h1v1h-1zM15 33h1v1h-1zM41 34h1v1h-1zM20 35h1v1h-1zM37 35h3v1h-3zM17 36h2v1h-2zM49 36h2v1h-2zM44 37h1v1h-1zM50 38h1v1h-1zM34 39h1v1h-1zM36 41h1v1h-1zM37 42h1v1h-1zM44 42h1v1h-1zM43 43h1v1h-1zM40 44h1v1h-1zM36 55h1v1h-1zM36 56h1v1h-1z"/>
    <path fill="#ded3c0" d="M25 8h1v1h-1zM36 8h1v1h-1zM42 15h1v1h-1zM55 19h1v1h-1zM31 20h1v1h-1zM23 23h1v1h-1zM22 24h2v1h-2zM24 26h1v1h-1zM39 26h1v1h-1zM28 28h1v1h-1zM17 29h1v1h-1zM16 30h1v1h-1zM30 30h1v1h-1zM42 31h1v1h-1zM28 32h1v1h-1zM33 33h1v1h-1zM40 35h1v1h-1zM36 36h1v1h-1zM43 36h1v1h-1zM49 37h2v1h-2zM27 38h1v1h-1zM35 38h1v1h-1zM35 39h1v1h-1zM36 40h1v1h-1zM44 40h1v1h-1zM44 41h1v1h-1zM43 42h1v1h-1zM38 43h1v1h-1zM42 43h1v1h-1z"/>
    <path fill="#e4e6b4" d="M34 14h1v1h-1zM33 15h1v1h-1zM38 18h1v1h-1zM37 19h1v1h-1zM44 19h1v1h-1zM43 20h1v1h-1zM29 28h1v1h-1zM42 35h1v1h-1zM37 36h1v1h-1zM44 38h1v1h-1zM24 46h1v1h-1zM21 48h1v1h-1zM24 49h3v1h-3z"/>
    <path fill="#edeada" d="M40 26h2v1h-2zM39 27h3v1h-3zM39 28h3v1h-3zM18 29h3v1h-3zM20 30h1v1h-1zM16 31h1v1h-1zM20 31h1v1h-1zM29 31h1v1h-1zM16 32h1v1h-1zM20 32h1v1h-1zM16 33h1v1h-1zM20 33h1v1h-1zM16 34h2v1h-2zM19 34h2v1h-2zM16 35h4v1h-4z"/>
    <path fill="#efedc7" d="M35 9h2v1h-2zM34 15h1v1h-1zM38 19h1v1h-1zM44 20h1v1h-1zM30 25h2v1h-2zM27 29h1v1h-1zM30 29h1v1h-1zM26 30h1v1h-1zM26 31h1v1h-1zM40 31h2v1h-2zM41 35h1v1h-1zM38 36h3v1h-3zM36 37h1v1h-1zM38 37h2v1h-2zM36 39h1v1h-1zM44 39h1v1h-1zM37 40h1v1h-1zM40 40h4v1h-4zM37 41h1v1h-1zM41 41h3v1h-3zM25 42h1v1h-1zM38 42h1v1h-1zM41 42h2v1h-2zM39 43h1v1h-1zM41 43h1v1h-1z"/>
    <path fill="#fcfbcd" d="M28 29h2v1h-2zM17 30h3v1h-3zM27 30h3v1h-3zM17 31h3v1h-3zM27 31h2v1h-2zM17 32h3v1h-3zM17 33h3v1h-3zM18 34h1v1h-1zM41 36h2v1h-2zM37 37h1v1h-1zM40 37h4v1h-4zM36 38h8v1h-8zM37 39h7v1h-7zM38 40h2v1h-2zM38 41h3v1h-3zM39 42h2v1h-2zM28 43h1v1h-1zM31 43h1v1h-1zM40 43h1v1h-1z"/>
  </g>
</svg>