<svg width="100%" height="100%" viewBox="0 0 48 48" shape-rendering="crispEdges" xmlns="http://www.w3.org/2000/svg">
  <rect x="1" y="1" width="46" height="46" rx="8" fill="#0E1F1A"/>
  <rect x="15" y="3" width="18" height="3" fill="#2A3034"/>
  <rect x="12" y="6" width="3" height="3" fill="#2A3034"/>
  <rect x="15" y="6" width="18" height="3" fill="#97A1A7"/>
  <rect x="33" y="6" width="3" height="3" fill="#2A3034"/>
  <rect x="9" y="9" width="3" height="3" fill="#2A3034"/>
  <rect x="12" y="9" width="3" height="3" fill="#97A1A7"/>
  <rect x="15" y="9" width="18" height="3" fill="#C4CDD2"/>
  <rect x="33" y="9" width="3" height="3" fill="#97A1A7"/>
  <rect x="36" y="9" width="3" height="3" fill="#2A3034"/>
  <rect x="6" y="12" width="3" height="3" fill="#2A3034"/>
  <rect x="9" y="12" width="3" height="3" fill="#97A1A7"/>
  <rect x="12" y="12" width="24" height="3" fill="#C4CDD2"/>
  <rect x="36" y="12" width="3" height="3" fill="#97A1A7"/>
  <rect x="39" y="12" width="3" height="3" fill="#2A3034"/>
  <rect x="3" y="15" width="3" height="3" fill="#EDF1F3"/>
  <rect x="6" y="15" width="3" height="3" fill="#2A3034"/>
  <rect x="9" y="15" width="3" height="3" fill="#97A1A7"/>
  <rect x="12" y="15" width="24" height="3" fill="#C4CDD2"/>
  <rect x="36" y="15" width="3" height="3" fill="#97A1A7"/>
  <rect x="39" y="15" width="3" height="3" fill="#2A3034"/>
  <rect x="42" y="15" width="3" height="3" fill="#EDF1F3"/>
  <rect x="0" y="18" width="6" height="3" fill="#EDF1F3"/>
  <rect x="6" y="18" width="3" height="3" fill="#2A3034"/>
  <rect x="9" y="18" width="3" height="3" fill="#97A1A7"/>
  <rect x="12" y="18" width="6" height="3" fill="#2A3034"/>
  <rect x="18" y="18" width="12" height="3" fill="#C4CDD2"/>
  <rect x="30" y="18" width="6" height="3" fill="#2A3034"/>
  <rect x="36" y="18" width="3" height="3" fill="#97A1A7"/>
  <rect x="39" y="18" width="3" height="3" fill="#2A3034"/>
  <rect x="42" y="18" width="6" height="3" fill="#EDF1F3"/>
  <rect x="0" y="21" width="3" height="3" fill="#EDF1F3"/>
  <rect x="3" y="21" width="3" height="3" fill="#2A3034"/>
  <rect x="6" y="21" width="3" height="3" fill="#97A1A7"/>
  <rect x="9" y="21" width="3" height="3" fill="#C4CDD2"/>
  <rect x="12" y="21" width="3" height="3" fill="#14CE96"/>
  <rect x="15" y="21" width="3" height="3" fill="#2A3034"/>
  <rect x="18" y="21" width="12" height="3" fill="#C4CDD2"/>
  <rect x="30" y="21" width="3" height="3" fill="#2A3034"/>
  <rect x="33" y="21" width="3" height="3" fill="#14CE96"/>
  <rect x="36" y="21" width="3" height="3" fill="#C4CDD2"/>
  <rect x="39" y="21" width="3" height="3" fill="#97A1A7"/>
  <rect x="42" y="21" width="3" height="3" fill="#2A3034"/>
  <rect x="45" y="21" width="3" height="3" fill="#EDF1F3"/>
  <rect x="3" y="24" width="3" height="3" fill="#2A3034"/>
  <rect x="6" y="24" width="3" height="3" fill="#97A1A7"/>
  <rect x="9" y="24" width="12" height="3" fill="#C4CDD2"/>
  <rect x="21" y="24" width="6" height="3" fill="#2A3034"/>
  <rect x="27" y="24" width="12" height="3" fill="#C4CDD2"/>
  <rect x="39" y="24" width="3" height="3" fill="#97A1A7"/>
  <rect x="42" y="24" width="3" height="3" fill="#2A3034"/>
  <rect x="6" y="27" width="3" height="3" fill="#2A3034"/>
  <rect x="9" y="27" width="3" height="3" fill="#97A1A7"/>
  <rect x="12" y="27" width="9" height="3" fill="#C4CDD2"/>
  <rect x="21" y="27" width="6" height="3" fill="#2A3034"/>
  <rect x="27" y="27" width="9" height="3" fill="#C4CDD2"/>
  <rect x="36" y="27" width="3" height="3" fill="#97A1A7"/>
  <rect x="39" y="27" width="3" height="3" fill="#2A3034"/>
  <rect x="6" y="30" width="3" height="3" fill="#2A3034"/>
  <rect x="9" y="30" width="3" height="3" fill="#97A1A7"/>
  <rect x="12" y="30" width="24" height="3" fill="#C4CDD2"/>
  <rect x="36" y="30" width="3" height="3" fill="#97A1A7"/>
  <rect x="39" y="30" width="3" height="3" fill="#2A3034"/>
  <rect x="6" y="33" width="3" height="3" fill="#2A3034"/>
  <rect x="9" y="33" width="3" height="3" fill="#97A1A7"/>
  <rect x="12" y="33" width="3" height="3" fill="#2A3034"/>
  <rect x="15" y="33" width="3" height="3" fill="#5F686E"/>
  <rect x="18" y="33" width="3" height="3" fill="#2A3034"/>
  <rect x="21" y="33" width="3" height="3" fill="#5F686E"/>
  <rect x="24" y="33" width="3" height="3" fill="#2A3034"/>
  <rect x="27" y="33" width="3" height="3" fill="#5F686E"/>
  <rect x="30" y="33" width="3" height="3" fill="#2A3034"/>
  <rect x="33" y="33" width="3" height="3" fill="#5F686E"/>
  <rect x="36" y="33" width="3" height="3" fill="#97A1A7"/>
  <rect x="39" y="33" width="3" height="3" fill="#2A3034"/>
  <rect x="9" y="36" width="3" height="3" fill="#2A3034"/>
  <rect x="12" y="36" width="3" height="3" fill="#97A1A7"/>
  <rect x="15" y="36" width="3" height="3" fill="#5F686E"/>
  <rect x="18" y="36" width="12" height="3" fill="#C4CDD2"/>
  <rect x="30" y="36" width="3" height="3" fill="#5F686E"/>
  <rect x="33" y="36" width="3" height="3" fill="#97A1A7"/>
  <rect x="36" y="36" width="3" height="3" fill="#2A3034"/>
  <rect x="12" y="39" width="3" height="3" fill="#2A3034"/>
  <rect x="15" y="39" width="6" height="3" fill="#97A1A7"/>
  <rect x="21" y="39" width="6" height="3" fill="#5F686E"/>
  <rect x="27" y="39" width="6" height="3" fill="#97A1A7"/>
  <rect x="33" y="39" width="3" height="3" fill="#2A3034"/>
  <rect x="15" y="42" width="18" height="3" fill="#2A3034"/>
</svg>
