<svg width="100%" height="100%" viewBox="0 0 16 16" shape-rendering="crispEdges" xmlns="http://www.w3.org/2000/svg">
  <rect x="6" y="1" width="1" height="1" fill="currentColor"/>
  <rect x="7" y="1" width="2" height="1" fill="currentColor"/>
  <rect x="4" y="2" width="1" height="1" fill="currentColor"/>
  <rect x="5" y="2" width="1" height="1" fill="currentColor"/>
  <rect x="6" y="2" width="1" height="1" fill="currentColor"/>
  <rect x="7" y="2" width="1" height="1" fill="currentColor"/>
  <rect x="8" y="2" width="1" height="1" fill="currentColor"/>
  <rect x="9" y="2" width="1" height="1" fill="currentColor"/>
  <rect x="10" y="2" width="1" height="1" fill="currentColor"/>
  <rect x="3" y="3" width="1" height="1" fill="currentColor"/>
  <rect x="4" y="3" width="1" height="1" fill="currentColor"/>
  <rect x="5" y="3" width="1" height="1" fill="currentColor"/>
  <rect x="7" y="3" width="1" height="1" fill="currentColor"/>
  <rect x="8" y="3" width="1" height="1" fill="currentColor"/>
  <rect x="9" y="3" width="1" height="1" fill="currentColor"/>
  <rect x="10" y="3" width="1" height="1" fill="currentColor"/>
  <rect x="11" y="3" width="2" height="1" fill="currentColor"/>
  <rect x="3" y="4" width="1" height="1" fill="currentColor"/>
  <rect x="4" y="4" width="1" height="1" fill="currentColor"/>
  <rect x="5" y="4" width="1" height="1" fill="currentColor"/>
  <rect x="6" y="4" width="1" height="1" fill="currentColor"/>
  <rect x="7" y="4" width="1" height="1" fill="currentColor"/>
  <rect x="8" y="4" width="2" height="1" fill="currentColor"/>
  <rect x="10" y="4" width="1" height="1" fill="currentColor"/>
  <rect x="11" y="4" width="1" height="1" fill="currentColor"/>
  <rect x="12" y="4" width="1" height="1" fill="currentColor"/>
  <rect x="2" y="5" width="2" height="1" fill="currentColor"/>
  <rect x="7" y="5" width="2" height="1" fill="currentColor"/>
  <rect x="12" y="5" width="2" height="1" fill="currentColor"/>
  <rect x="2" y="6" width="2" height="1" fill="currentColor"/>
  <rect x="7" y="6" width="2" height="1" fill="currentColor"/>
  <rect x="12" y="6" width="2" height="1" fill="currentColor"/>
  <rect x="2" y="7" width="2" height="1" fill="currentColor"/>
  <rect x="7" y="7" width="2" height="1" fill="currentColor"/>
  <rect x="12" y="7" width="2" height="1" fill="currentColor"/>
  <rect x="2" y="8" width="1" height="1" fill="currentColor"/>
  <rect x="3" y="8" width="4" height="1" fill="currentColor"/>
  <rect x="7" y="8" width="2" height="1" fill="currentColor"/>
  <rect x="9" y="8" width="4" height="1" fill="currentColor"/>
  <rect x="13" y="8" width="1" height="1" fill="currentColor"/>
  <rect x="2" y="9" width="1" height="1" fill="currentColor"/>
  <rect x="4" y="9" width="7" height="1" fill="currentColor"/>
  <rect x="12" y="9" width="1" height="1" fill="currentColor"/>
  <rect x="13" y="9" width="1" height="1" fill="currentColor"/>
  <rect x="2" y="10" width="1" height="1" fill="currentColor"/>
  <rect x="4" y="10" width="2" height="1" fill="currentColor"/>
  <rect x="7" y="10" width="2" height="1" fill="currentColor"/>
  <rect x="10" y="10" width="1" height="1" fill="currentColor"/>
  <rect x="12" y="10" width="1" height="1" fill="currentColor"/>
  <rect x="13" y="10" width="1" height="1" fill="currentColor"/>
  <rect x="2" y="11" width="1" height="1" fill="currentColor"/>
  <rect x="12" y="11" width="1" height="1" fill="currentColor"/>
  <rect x="13" y="11" width="1" height="1" fill="currentColor"/>
  <rect x="3" y="12" width="1" height="1" fill="currentColor"/>
  <rect x="5" y="12" width="5" height="1" fill="currentColor"/>
  <rect x="11" y="12" width="1" height="1" fill="currentColor"/>
  <rect x="12" y="12" width="1" height="1" fill="currentColor"/>
  <rect x="3" y="13" width="2" height="1" fill="currentColor"/>
  <rect x="5" y="13" width="6" height="1" fill="currentColor"/>
  <rect x="11" y="13" width="2" height="1" fill="currentColor"/>
  <rect x="5" y="14" width="6" height="1" fill="currentColor"/>
</svg>
